<svg width="16" height="16" viewBox="0 0 16 16" fill="none" xmlns="http://www.w3.org/2000/svg">
<g clip-path="url(#clip0_5526_8182)">
<path d="M4.56074 5.8109C4.56074 6.14016 4.5816 6.40712 4.61811 6.60289C4.65982 6.79867 4.71197 7.01224 4.78498 7.2436C4.81105 7.31479 4.82148 7.38598 4.82148 7.44828C4.82148 7.53726 4.79019 7.62625 4.7224 7.71524L4.39387 8.08899C4.34694 8.14238 4.30001 8.16908 4.25829 8.16908C4.20615 8.16908 4.154 8.12458 4.10185 8.04449C4.02885 7.91101 3.96627 7.76863 3.91412 7.62625C3.86198 7.47497 3.80983 7.3059 3.75247 7.10122C3.34572 7.91991 2.83468 8.32925 2.21935 8.32925C1.78132 8.32925 1.43193 8.11568 1.17641 7.68854C0.920894 7.2614 0.790527 6.69188 0.790527 5.97998C0.790527 5.22358 0.946968 4.60957 1.26506 4.14683C1.58316 3.68409 2.00555 3.45273 2.54266 3.45273C2.71996 3.45273 2.90247 3.47942 3.09542 3.52392C3.28836 3.56841 3.48652 3.6396 3.69511 3.71969V3.07008C3.69511 2.39377 3.61167 1.92214 3.45002 1.64627C3.28315 1.37041 3.00155 1.23693 2.60002 1.23693C2.41751 1.23693 2.22978 1.27252 2.03684 1.35261C1.84389 1.4327 1.65616 1.53059 1.47365 1.65517C1.39022 1.71746 1.32764 1.75306 1.29114 1.77086C1.25463 1.78865 1.22856 1.79755 1.2077 1.79755C1.1347 1.79755 1.09819 1.70856 1.09819 1.52169V1.08565C1.09819 0.94327 1.10862 0.836485 1.1347 0.774193C1.16077 0.711902 1.2077 0.649611 1.28071 0.587319C1.46322 0.427141 1.68224 0.29366 1.93776 0.186874C2.19328 0.0711902 2.46444 0.0177975 2.75125 0.0177975C3.3718 0.0177975 3.82547 0.258064 4.1175 0.738598C4.4043 1.21913 4.55031 1.94883 4.55031 2.9277V5.8109H4.56074ZM2.44358 7.16351C2.61567 7.16351 2.79297 7.11012 2.98069 7.00334C3.16842 6.89655 3.33529 6.70078 3.47609 6.43382C3.55952 6.26474 3.6221 6.07786 3.65339 5.86429C3.68468 5.65072 3.70554 5.39266 3.70554 5.0901V4.71635C3.55431 4.65406 3.39265 4.60067 3.22578 4.56507C3.05891 4.52948 2.89726 4.51168 2.7356 4.51168C2.38622 4.51168 2.1307 4.62736 1.95862 4.86763C1.78653 5.1079 1.7031 5.44605 1.7031 5.89099C1.7031 6.30923 1.76567 6.62069 1.89604 6.83426C2.02119 7.05673 2.20371 7.16351 2.44358 7.16351ZM6.63097 8.12458C6.53711 8.12458 6.47453 8.09789 6.43282 8.03559C6.3911 7.9822 6.35459 7.85762 6.32331 7.68854L5.09786 0.809789C5.06657 0.631813 5.05092 0.516129 5.05092 0.453838C5.05092 0.311457 5.09264 0.231368 5.17608 0.231368H5.68712C5.78619 0.231368 5.85399 0.258065 5.89049 0.320356C5.93221 0.373749 5.96349 0.498332 5.99478 0.667408L6.87085 6.5584L7.68434 0.667408C7.71041 0.489433 7.7417 0.373749 7.78342 0.320356C7.82514 0.266963 7.89814 0.231368 7.992 0.231368H8.40918C8.50826 0.231368 8.57605 0.258065 8.61777 0.320356C8.65948 0.373749 8.69599 0.498332 8.71685 0.667408L9.54077 6.62959L10.4429 0.667408C10.4742 0.489433 10.5107 0.373749 10.5472 0.320356C10.5889 0.266963 10.6567 0.231368 10.7506 0.231368H11.2355C11.319 0.231368 11.3659 0.302558 11.3659 0.453838C11.3659 0.498331 11.3607 0.542825 11.3555 0.596218C11.3503 0.649611 11.3398 0.720801 11.319 0.818687L10.0622 7.69744C10.0309 7.87542 9.99444 7.9911 9.95273 8.04449C9.91101 8.09789 9.84322 8.13348 9.75457 8.13348H9.3061C9.20703 8.13348 9.13924 8.10678 9.09752 8.04449C9.0558 7.9822 9.0193 7.86652 8.99844 7.68854L8.19016 1.94883L7.3871 7.67964C7.36103 7.85762 7.32974 7.9733 7.28802 8.03559C7.24631 8.09789 7.1733 8.12458 7.07944 8.12458H6.63097ZM13.3318 8.36485C13.0607 8.36485 12.7895 8.31146 12.5288 8.20467C12.268 8.09789 12.0647 7.9822 11.9291 7.84872C11.8457 7.76863 11.7883 7.67964 11.7674 7.59956C11.7466 7.51947 11.7361 7.43048 11.7361 7.35039V6.89655C11.7361 6.70968 11.7779 6.62069 11.8561 6.62069C11.8874 6.62069 11.9187 6.62959 11.95 6.64739C11.9812 6.66518 12.0282 6.70078 12.0803 6.73637C12.2576 6.86986 12.4506 6.97664 12.6539 7.04783C12.8625 7.11902 13.0659 7.15462 13.2745 7.15462C13.603 7.15462 13.8585 7.05673 14.0358 6.86096C14.2131 6.66518 14.307 6.38042 14.307 6.01557C14.307 5.76641 14.2601 5.56174 14.1662 5.39266C14.0723 5.22358 13.895 5.0723 13.6395 4.92992L12.8834 4.52948C12.5027 4.3248 12.2211 4.02225 12.049 3.6218C11.8769 3.23026 11.7883 2.79422 11.7883 2.33148C11.7883 1.95773 11.8352 1.62848 11.9291 1.34372C12.023 1.05895 12.1481 0.809789 12.3045 0.614016C12.461 0.409344 12.6383 0.258065 12.8469 0.151279C13.0555 0.0444939 13.2745 0 13.5039 0C13.6186 0 13.7386 0.00889877 13.8533 0.0355951C13.9732 0.0622914 14.0828 0.0978865 14.1923 0.133482C14.2966 0.177976 14.3956 0.222469 14.4895 0.275862C14.5834 0.329255 14.6564 0.382647 14.7085 0.43604C14.7815 0.50723 14.8337 0.57842 14.865 0.658509C14.8962 0.7297 14.9119 0.827586 14.9119 0.952169V1.37041C14.9119 1.55729 14.8702 1.65517 14.792 1.65517C14.7502 1.65517 14.6824 1.61958 14.5938 1.54839C14.2966 1.31702 13.9628 1.20133 13.5926 1.20133C13.2953 1.20133 13.0607 1.28142 12.899 1.4505C12.7374 1.61958 12.6539 1.87764 12.6539 2.24249C12.6539 2.49166 12.7061 2.70523 12.8104 2.87431C12.9147 3.04338 13.1076 3.21246 13.384 3.36374L14.1245 3.76418C14.4999 3.96885 14.7711 4.25362 14.9327 4.61846C15.0944 4.98331 15.1726 5.40156 15.1726 5.86429C15.1726 6.24694 15.1257 6.59399 15.037 6.89655C14.9432 7.19911 14.818 7.46607 14.6564 7.67964C14.4947 7.90211 14.3018 8.06229 14.0775 8.17797C13.8429 8.30256 13.5978 8.36485 13.3318 8.36485Z" fill="#252F3E"/>
<path fill-rule="evenodd" clip-rule="evenodd" d="M14.3178 12.6897C12.6021 14.8521 10.1095 16 7.96627 16C4.96261 16 2.25619 14.1046 0.212039 10.9544C0.0503834 10.7052 0.196395 10.3671 0.389338 10.5629C2.60036 12.752 5.32764 14.0779 8.14879 14.0779C10.0521 14.0779 12.1432 13.4016 14.0675 12.0134C14.3543 11.7909 14.5993 12.3337 14.3178 12.6897Z" fill="#12141D"/>
<path fill-rule="evenodd" clip-rule="evenodd" d="M15.032 11.3015C14.8129 10.8209 13.5823 11.0701 13.0243 11.1858C12.8574 11.2214 12.8314 10.9722 12.9826 10.7853C13.9629 9.61069 15.5743 9.94885 15.762 10.3404C15.9497 10.7408 15.7099 13.4906 14.7921 14.8076C14.6513 15.0123 14.5157 14.9055 14.5783 14.6385C14.7869 13.7575 15.251 11.7731 15.032 11.3015Z" fill="#12141D"/>
</g>
<defs>
<clipPath id="clip0_5526_8182">
<rect width="16" height="16" fill="white"/>
</clipPath>
</defs>
</svg>
