<svg width="17" height="17" viewBox="0 0 17 17" fill="none" xmlns="http://www.w3.org/2000/svg">
<path d="M11.2757 8.75369C10.9975 8.75452 10.7202 8.72417 10.4487 8.66321C10.6069 9.0061 10.7279 9.36506 10.8096 9.7339C10.9599 9.7339 11.1153 9.7339 11.2757 9.7339C11.7867 9.7331 12.2944 9.64993 12.7792 9.48759L12.3131 8.57776C11.9769 8.68382 11.6279 8.74302 11.2757 8.75369Z" fill="#12141D"/>
<path d="M8.6846 7.77854L8.50418 7.58752C8.11289 7.20382 7.81111 6.73801 7.62049 6.22352C7.42987 5.70903 7.35512 5.1586 7.40161 4.61172C7.45279 3.8792 7.72162 3.17886 8.17341 2.60104L8.13332 3.31986C8.13281 3.44569 8.17937 3.56714 8.26381 3.66021C8.34826 3.75328 8.46443 3.8112 8.58938 3.82253H8.63449C8.75995 3.82304 8.88103 3.77633 8.97382 3.69164C9.06662 3.60694 9.12436 3.49042 9.13565 3.3651L9.30605 1.30918C9.31205 1.23637 9.30216 1.16312 9.27706 1.09454C9.25196 1.02596 9.21225 0.96369 9.16071 0.912068C9.10585 0.867495 9.04222 0.83505 8.97399 0.816859C8.90576 0.798667 8.83447 0.79514 8.76479 0.806507L6.71502 0.982442C6.5821 0.993774 6.45911 1.0576 6.37311 1.15988C6.28712 1.26216 6.24515 1.39452 6.25645 1.52784C6.26775 1.66115 6.33138 1.78451 6.43336 1.87077C6.53533 1.95702 6.6673 1.99911 6.80021 1.98778L7.44672 1.93249C6.83794 2.69654 6.47914 3.63046 6.41933 4.60669C6.36754 5.27572 6.46028 5.94809 6.69121 6.57789C6.92213 7.20769 7.28582 7.78011 7.75744 8.25607L7.9128 8.44206C8.55322 9.10588 8.92169 9.98675 8.94521 10.9102C8.97192 11.3284 8.92786 11.7482 8.81491 12.1518L9.71701 12.6092C9.91107 12.0426 9.98781 11.4422 9.94253 10.8448C9.91176 9.7027 9.46415 8.61163 8.6846 7.77854Z" fill="#12141D"/>
<path d="M15.721 7.79863L15.1146 7.84387C15.668 7.12554 16.0092 6.26588 16.0997 5.36266C16.1901 4.45943 16.026 3.54889 15.626 2.73456C15.2261 1.92024 14.6063 1.23481 13.8373 0.756234C13.0682 0.277654 12.1807 0.0251233 11.2757 0.0273585C10.7645 0.0264726 10.2565 0.109679 9.77217 0.273667L10.2282 1.17847C10.8004 1.01595 11.4023 0.988782 11.9867 1.09911C12.5711 1.20943 13.122 1.45424 13.5961 1.81428C14.0702 2.17432 14.4545 2.63977 14.7189 3.17403C14.9832 3.70828 15.1204 4.29677 15.1196 4.8932C15.1195 5.75511 14.828 6.59151 14.2927 7.2658L14.3428 6.49169C14.3471 6.42568 14.3384 6.35947 14.3171 6.29684C14.2959 6.23421 14.2626 6.17639 14.2191 6.12668C14.1755 6.07697 14.1227 6.03634 14.0635 6.00711C14.0044 5.97789 13.94 5.96064 13.8742 5.95635C13.8084 5.95206 13.7424 5.96081 13.68 5.98211C13.6175 6.00341 13.5599 6.03683 13.5103 6.08047C13.4607 6.12412 13.4202 6.17712 13.3911 6.23647C13.362 6.29581 13.3448 6.36033 13.3405 6.42634L13.2002 8.47724C13.1962 8.54998 13.208 8.62272 13.2348 8.69042C13.2617 8.75812 13.3028 8.81916 13.3555 8.86932C13.4006 8.91517 13.4545 8.9513 13.5139 8.9755C13.5734 8.99971 13.6372 9.01147 13.7013 9.01007H13.7514L15.7962 8.79895C15.8621 8.79267 15.9262 8.77334 15.9846 8.74208C16.0431 8.71082 16.0948 8.66825 16.1367 8.61684C16.1787 8.56542 16.21 8.50617 16.229 8.44252C16.248 8.37887 16.2542 8.31208 16.2473 8.24601C16.2333 8.11804 16.171 8.0003 16.0731 7.91706C15.9752 7.83383 15.8492 7.79144 15.721 7.79863Z" fill="#12141D"/>
<path d="M1.52304 9.07041H1.56313L3.6129 8.89447C3.67872 8.88886 3.74279 8.8703 3.80145 8.83986C3.86011 8.80941 3.91222 8.76768 3.95481 8.71703C3.99739 8.66639 4.02961 8.60783 4.04962 8.54469C4.06964 8.48156 4.07707 8.41509 4.07147 8.34908C4.06588 8.28306 4.04738 8.2188 4.01702 8.15996C3.98667 8.10113 3.94506 8.04886 3.89456 8.00615C3.84407 7.96344 3.78568 7.93112 3.72274 7.91105C3.65979 7.89097 3.59352 7.88352 3.52771 7.88913L2.83108 7.94945C3.48725 7.46394 4.28096 7.20151 5.09636 7.20047C5.37105 7.20213 5.64483 7.23245 5.91326 7.29096C5.75585 6.94824 5.63652 6.58918 5.55743 6.22027C5.40708 6.22027 5.25172 6.22027 5.09636 6.22027C4.02708 6.21867 2.98737 6.57217 2.13947 7.22561L2.19961 6.56711C2.20509 6.50106 2.1975 6.43457 2.17726 6.37147C2.15702 6.30837 2.12454 6.24991 2.08168 6.19946C2.03883 6.149 1.98645 6.10754 1.92756 6.07747C1.86867 6.0474 1.80443 6.0293 1.73854 6.02423C1.60633 6.01308 1.4751 6.05498 1.37364 6.14073C1.27218 6.22647 1.20875 6.34908 1.19728 6.48166L1.02187 8.53255C1.01632 8.60186 1.02518 8.67158 1.04787 8.73728C1.07056 8.80299 1.10659 8.86326 1.15369 8.91428C1.2008 8.96531 1.25794 9.00597 1.32151 9.03371C1.38509 9.06145 1.45371 9.07566 1.52304 9.07543V9.07041Z" fill="#12141D"/>
<path d="M8.71471 12.9862L6.66494 13.1219C6.53202 13.1306 6.40798 13.1919 6.3201 13.2923C6.23222 13.3927 6.18771 13.524 6.19635 13.6573C6.20499 13.7906 6.26608 13.915 6.36617 14.0031C6.46627 14.0913 6.59717 14.1359 6.73009 14.1273L7.50189 14.072C6.9343 14.5295 6.24937 14.8169 5.52603 14.901C4.80269 14.985 4.07038 14.8624 3.41352 14.5471C2.75665 14.2319 2.20196 13.7369 1.81339 13.1192C1.42481 12.5016 1.21816 11.7863 1.21725 11.056C1.22086 10.7158 1.26974 10.3777 1.36259 10.0506L0.485549 9.58313C0.330289 10.062 0.250809 10.5624 0.25 11.066C0.25588 11.9764 0.515739 12.8669 1.00016 13.6367C1.48458 14.4066 2.1742 15.0251 2.99097 15.4221C3.80774 15.8192 4.71902 15.9789 5.62164 15.8834C6.52427 15.7878 7.38219 15.4406 8.09828 14.8813L8.03814 15.4744C8.03119 15.5401 8.03722 15.6065 8.05588 15.6699C8.07455 15.7332 8.10547 15.7923 8.1469 15.8436C8.18832 15.895 8.23943 15.9376 8.2973 15.9692C8.35518 16.0007 8.41868 16.0205 8.48418 16.0274H8.5393C8.66398 16.028 8.78441 15.982 8.87708 15.8983C8.96975 15.8147 9.02801 15.6994 9.04047 15.575L9.25096 13.5341C9.25841 13.4614 9.24994 13.3879 9.22617 13.3188C9.20239 13.2497 9.16387 13.1866 9.1133 13.134C9.06272 13.0813 9.0013 13.0404 8.93333 13.014C8.86535 12.9876 8.79246 12.9764 8.71972 12.9812L8.71471 12.9862Z" fill="#12141D"/>
</svg>
