<svg width="16" height="16" viewBox="0 0 16 16" fill="none" xmlns="http://www.w3.org/2000/svg">
<g clip-path="url(#clip0_5530_6)">
<path d="M16.8305 6.88662C16.786 6.85338 16.3856 6.581 15.5256 6.581C15.3031 6.581 15.0733 6.60094 14.8509 6.63415C14.6877 5.61764 13.7461 5.126 13.7091 5.09944L13.4792 4.97983L13.3309 5.17251C13.1456 5.43163 13.0047 5.72395 12.9231 6.02293C12.7675 6.60094 12.8638 7.14573 13.1901 7.61078C12.7971 7.81011 12.1595 7.85662 12.026 7.86324H1.49772C1.2234 7.86324 1.00097 8.06258 1.00097 8.3084C0.986156 9.13222 1.14184 9.95605 1.46067 10.7334C1.82395 11.5838 2.36521 12.2149 3.06216 12.6003C3.84807 13.0321 5.13073 13.2779 6.5765 13.2779C7.22897 13.2779 7.88141 13.2248 8.52647 13.1185C9.42358 12.9723 10.2836 12.6933 11.077 12.288C11.7271 11.9503 12.313 11.5196 12.8119 11.0124C13.6497 10.1687 14.1465 9.22524 14.5098 8.38812H14.658C15.57 8.38812 16.1335 8.06258 16.4449 7.78352C16.6525 7.61078 16.8082 7.3982 16.9194 7.15903L16.9862 6.98628L16.8305 6.88662Z" fill="#12141D"/>
<path d="M2.47663 7.59085H3.88533C3.95207 7.59085 4.01139 7.54436 4.01139 7.47794V6.34849C4.01139 6.28868 3.95948 6.23555 3.88533 6.23555H2.47663C2.4099 6.23555 2.35059 6.28203 2.35059 6.34849V7.47794C2.35799 7.54436 2.4099 7.59087 2.47663 7.59087V7.59085ZM4.41916 7.59085H5.82788C5.89461 7.59085 5.95392 7.54436 5.95392 7.47794V6.34849C5.95392 6.28868 5.90201 6.23555 5.82788 6.23555H4.41913C4.35241 6.23555 4.29309 6.28203 4.29309 6.34849V7.47794C4.30052 7.54436 4.35243 7.59087 4.41913 7.59087M6.39874 7.59087H7.80746C7.87419 7.59087 7.9335 7.54436 7.9335 7.47794V6.34849C7.9335 6.28868 7.88159 6.23555 7.80746 6.23555H6.39874C6.33201 6.23555 6.2727 6.28203 6.2727 6.34849V7.47794C6.2727 7.54436 6.32461 7.59087 6.39874 7.59087ZM8.3487 7.59087H9.75743C9.82415 7.59087 9.88346 7.54436 9.88346 7.47794V6.34849C9.88346 6.28868 9.83155 6.23555 9.75743 6.23555H8.3487C8.28198 6.23555 8.22266 6.28203 8.22266 6.34849V7.47794C8.22266 7.54436 8.28198 7.59087 8.3487 7.59087ZM4.41916 5.97643H5.82786C5.89458 5.97643 5.9539 5.9233 5.9539 5.8635V4.73405C5.9539 4.67424 5.90198 4.62109 5.82786 4.62109H4.41913C4.35241 4.62109 4.29309 4.6676 4.29309 4.73405V5.8635C4.30052 5.92328 4.35246 5.97643 4.41916 5.97643ZM6.39874 5.97643H7.80746C7.87419 5.97643 7.9335 5.9233 7.9335 5.8635V4.73405C7.9335 4.67424 7.88159 4.62109 7.80746 4.62109H6.39874C6.33201 4.62109 6.2727 4.6676 6.2727 4.73405V5.8635C6.2727 5.92328 6.32461 5.97643 6.39874 5.97643ZM8.3487 5.97643H9.75743C9.82415 5.97643 9.88346 5.9233 9.88346 5.8635V4.73405C9.88346 4.67424 9.82412 4.62109 9.75743 4.62109H8.3487C8.28198 4.62109 8.22266 4.6676 8.22266 4.73405V5.8635C8.22266 5.92328 8.28198 5.97643 8.3487 5.97643ZM8.3487 4.35535H9.75743C9.82415 4.35535 9.88346 4.30884 9.88346 4.24241V3.11296C9.88346 3.05316 9.82412 3 9.75743 3H8.3487C8.28198 3 8.22266 3.04651 8.22266 3.11296V4.24241C8.22266 4.30219 8.28198 4.35535 8.3487 4.35535ZM10.3135 7.59087H11.7222C11.7889 7.59087 11.8482 7.54436 11.8482 7.47794V6.34849C11.8482 6.28868 11.7964 6.23555 11.7222 6.23555H10.3135C10.2467 6.23555 10.1874 6.28203 10.1874 6.34849V7.47794C10.1949 7.54436 10.2468 7.59087 10.3135 7.59087" fill="#12141D"/>
</g>
<defs>
<clipPath id="clip0_5530_6">
<rect width="16" height="16" fill="white"/>
</clipPath>
</defs>
</svg>
