<svg width="16" height="16" viewBox="0 0 16 16" fill="none" xmlns="http://www.w3.org/2000/svg">
<path d="M8 0.0065918C3.6 0.0065918 0 3.60659 0 8.00659C0 12.4066 3.6 16.0066 8 16.0066C12.4 16.0066 16 12.4066 16 8.00659C16 3.60659 12.4 0.0065918 8 0.0065918ZM3.54286 12.4637C2.34286 11.2637 1.71429 9.66374 1.71429 8.12088L7.94286 14.2923C6.34286 14.2352 4.74286 13.6637 3.54286 12.4637ZM9.37143 14.1209L1.88571 6.63516C2.51429 3.83516 5.02857 1.72088 8 1.72088C10.1143 1.72088 11.9429 2.74945 13.0857 4.29231L12.2286 5.03516C11.2571 3.72088 9.71429 2.86373 8 2.86373C5.77143 2.86373 3.88571 4.29231 3.14286 6.29231L9.71429 12.8637C11.3714 12.2923 12.6286 10.8637 13.0286 9.14945H10.2857V8.00659H14.2857C14.2857 10.978 12.1714 13.4923 9.37143 14.1209Z" fill="#12141D"/>
</svg>
