<svg width="16" height="16" viewBox="0 0 16 16" fill="none" xmlns="http://www.w3.org/2000/svg">
<g clip-path="url(#clip0_5526_8175)">
<path d="M15.6982 7.28717L8.7125 0.301795C8.31044 -0.100517 7.65794 -0.100517 7.25537 0.301795L5.80475 1.75242L7.64494 3.59261C8.07256 3.44811 8.56294 3.54505 8.90381 3.88592C9.24631 4.22898 9.34256 4.72355 9.19456 5.15255L10.968 6.92605C11.3971 6.77823 11.8921 6.87386 12.2348 7.21711C12.7137 7.69586 12.7137 8.4718 12.2348 8.95086C11.7558 9.42998 10.9798 9.42998 10.5005 8.95086C10.1402 8.59023 10.0513 8.06117 10.2336 7.61736L8.57975 5.96348L8.57956 10.3158C8.69945 10.3751 8.80896 10.4534 8.90381 10.5477C9.38275 11.0264 9.38275 11.8024 8.90381 12.2819C8.42475 12.7607 7.64844 12.7607 7.17006 12.2819C6.69112 11.8024 6.69112 11.0265 7.17006 10.5477C7.28484 10.4329 7.42124 10.342 7.57137 10.2802V5.8873C7.42102 5.82592 7.28454 5.73492 7.17006 5.61973C6.80719 5.25736 6.71994 4.72492 6.90588 4.27936L5.09188 2.46517L0.301875 7.25486C-0.100625 7.65755 -0.100625 8.31011 0.301875 8.71248L7.28775 15.698C7.68994 16.1004 8.34231 16.1004 8.745 15.698L15.6982 8.74492C16.1006 8.34242 16.1006 7.68948 15.6982 7.28717Z" fill="black"/>
</g>
<defs>
<clipPath id="clip0_5526_8175">
<rect width="16" height="16" fill="white"/>
</clipPath>
</defs>
</svg>
