<svg width="16" height="16" viewBox="0 0 16 16" fill="none" xmlns="http://www.w3.org/2000/svg">
<path d="M5.69326 14.9875C5.92078 14.8896 6.08014 14.6634 6.08014 14.4V12.672C6.08014 12.609 6.08526 12.5434 6.09326 12.4768C6.08878 12.4781 6.08462 12.4791 6.08014 12.48C6.08014 12.48 5.12014 12.48 4.92814 12.48C4.44814 12.48 4.03214 12.288 3.84014 11.904C3.61614 11.488 3.52014 10.784 2.94414 10.4C2.84814 10.336 2.91214 10.24 3.10414 10.24C3.29614 10.272 3.71214 10.528 3.96814 10.88C4.25614 11.232 4.54414 11.52 5.05614 11.52C5.85198 11.52 6.27854 11.48 6.53518 11.3424C6.83406 10.8979 7.24782 10.56 7.68014 10.56V10.552C5.86638 10.4938 4.70766 9.89089 4.16814 8.96001C2.99534 8.97345 1.97422 9.08961 1.3915 9.18625C1.37294 9.08161 1.35694 8.97633 1.34318 8.87041C1.91822 8.77569 2.89294 8.66337 4.01358 8.64193C3.97774 8.55361 3.9467 8.46305 3.92046 8.37025C2.79694 8.31329 1.82734 8.35777 1.30062 8.40129C1.29422 8.29505 1.28558 8.18913 1.2843 8.08161C1.81198 8.03841 2.75534 7.99521 3.85006 8.04609C3.82478 7.88609 3.80846 7.72257 3.80846 7.55233C3.80846 7.00833 4.00046 6.43233 4.35246 5.95233C4.19246 5.40833 3.96846 4.25633 4.41646 3.84033C5.28046 3.84033 5.88846 4.25633 6.17646 4.51233C6.72014 4.28801 7.32814 4.16001 8.00014 4.16001C8.67214 4.16001 9.28014 4.28801 9.79214 4.51201C10.0801 4.25601 10.6881 3.84001 11.5521 3.84001C12.0321 4.28801 11.7761 5.44001 11.6161 5.95201C11.9681 6.43201 12.1601 6.97601 12.1281 7.55201C12.1281 7.70689 12.1137 7.85633 12.0929 8.00289C13.2126 7.94785 14.1816 7.99201 14.7182 8.03553C14.7176 8.14337 14.7077 8.24865 14.7019 8.35521C14.1672 8.31105 13.1739 8.26561 12.027 8.32673C11.9985 8.43425 11.964 8.53889 11.923 8.64033C13.0577 8.65505 14.0558 8.76481 14.6584 8.86082C14.6446 8.96705 14.6286 9.07233 14.6101 9.17665C13.9982 9.07873 12.9553 8.96417 11.7688 8.95842C11.236 9.87937 10.0984 10.48 8.32014 10.5501V10.56C9.15214 10.56 9.92014 11.808 9.92014 12.672V14.4C9.92014 14.6634 10.0795 14.8896 10.307 14.9875C13.2385 14.0173 15.3601 11.2525 15.3601 8.00001C15.3601 3.94177 12.0587 0.640015 8.00014 0.640015C3.94158 0.640015 0.640137 3.94177 0.640137 8.00001C0.640137 11.2525 2.76174 14.0173 5.69326 14.9875Z" fill="black"/>
</svg>
