<svg width="16" height="16" viewBox="0 0 16 16" fill="none" xmlns="http://www.w3.org/2000/svg">
<g clip-path="url(#clip0_5526_8152)">
<path d="M1.6369 11.9946L0.995117 11.6716L8.14467 0.878571L8.78646 1.20153L1.6369 11.9946Z" fill="#12141D"/>
<path d="M0.848145 10.8094H15.1473V11.4553H0.848145V10.8094Z" fill="#12141D"/>
<path d="M8.28334 14.7715L1.1311 11.1722L1.50164 10.6129L8.65387 14.2121L8.28334 14.7715ZM14.4965 5.39092L7.34423 1.79168L7.71476 1.2323L14.867 4.83154L14.4965 5.39092Z" fill="#12141D"/>
<path d="M1.50359 5.38844L1.13306 4.8291L8.28529 1.22986L8.65582 1.7892L1.50359 5.38844Z" fill="#12141D"/>
<path d="M14.3645 11.9947L7.21495 1.20165L7.85674 0.878693L15.0063 11.6717L14.3645 11.9947ZM1.41504 4.40077H2.15611V11.5993H1.41504V4.40077Z" fill="#12141D"/>
<path d="M13.8438 4.40076H14.5848V11.5992H13.8438V4.40076Z" fill="#12141D"/>
<path d="M8.15716 14.4981L7.8335 14.0095L14.054 10.8791L14.3777 11.3677L8.15716 14.4981Z" fill="#12141D"/>
<path d="M15.5669 11.8094C15.1383 12.4592 14.183 12.681 13.4374 12.3074C12.6919 11.9339 12.4374 11.1012 12.866 10.4514C13.2946 9.80157 14.2499 9.57978 14.9955 9.95332C15.7455 10.3308 15.9999 11.1596 15.5669 11.8094ZM3.12939 5.54863C2.70082 6.19844 1.74546 6.42023 0.999926 6.04669C0.254391 5.67314 -7.37458e-05 4.84045 0.428498 4.19065C0.857069 3.54084 1.81243 3.31905 2.55796 3.69259C3.3035 4.07002 3.55796 4.89882 3.12939 5.54863ZM0.432962 11.8094C0.00439057 11.1596 0.258855 10.3308 1.00439 9.95332C1.74993 9.57978 2.70082 9.80157 3.13385 10.4514C3.56243 11.1012 3.30796 11.93 2.56243 12.3074C1.81243 12.681 0.861533 12.4592 0.432962 11.8094ZM12.8705 5.54863C12.4419 4.89882 12.6964 4.07002 13.4419 3.69259C14.1874 3.31905 15.1383 3.54084 15.5714 4.19065C15.9999 4.84045 15.7455 5.66925 14.9999 6.04669C14.2544 6.42023 13.299 6.19844 12.8705 5.54863ZM7.99993 15.6187C7.13832 15.6187 6.44189 15.0117 6.44189 14.2607C6.44189 13.5098 7.13832 12.9028 7.99993 12.9028C8.86153 12.9028 9.55796 13.5098 9.55796 14.2607C9.55796 15.0078 8.86153 15.6187 7.99993 15.6187ZM7.99993 3.09725C7.13832 3.09725 6.44189 2.49025 6.44189 1.73927C6.44189 0.988294 7.13832 0.381287 7.99993 0.381287C8.86153 0.381287 9.55796 0.988294 9.55796 1.73927C9.55796 2.49025 8.86153 3.09725 7.99993 3.09725Z" fill="#12141D"/>
</g>
<defs>
<clipPath id="clip0_5526_8152">
<rect width="16" height="16" fill="white"/>
</clipPath>
</defs>
</svg>
