<svg width="16" height="16" viewBox="0 0 16 16" fill="none" xmlns="http://www.w3.org/2000/svg">
<g clip-path="url(#clip0_5526_8107)">
<path d="M0.0374603 3.65048C0.031538 3.67168 0.0285101 3.69354 0.0284538 3.7155V7.12896C0.0284519 7.17278 0.0404081 7.21581 0.0631123 7.25372C0.0858173 7.29163 0.118466 7.32307 0.15776 7.34487L3.1199 8.99436V12.2638C3.1199 12.3528 3.16879 12.4349 3.24856 12.4797L9.43177 15.9224C9.44592 15.9302 9.46136 15.9351 9.4768 15.9404C9.48259 15.9423 9.48806 15.9457 9.49417 15.9473C9.53739 15.9583 9.58283 15.9583 9.62605 15.9473C9.63313 15.9454 9.63956 15.9417 9.64631 15.9392C9.66047 15.9342 9.67526 15.9299 9.68877 15.9224L15.8707 12.4797C15.91 12.4579 15.9426 12.4264 15.9653 12.3885C15.988 12.3506 16 12.3076 16 12.2638V2.0234C16 2.001 15.9968 1.97922 15.991 1.95806C15.9891 1.95091 15.9846 1.94437 15.982 1.93722C15.9772 1.92415 15.9727 1.91077 15.9656 1.89864C15.9608 1.89055 15.9537 1.88402 15.9479 1.87655C15.9405 1.8666 15.9337 1.85633 15.9251 1.84762C15.9177 1.84046 15.908 1.83518 15.8996 1.82895C15.8903 1.82149 15.882 1.8134 15.8713 1.80749L12.7799 0.0861353C12.7408 0.0643518 12.6964 0.052887 12.6512 0.052887C12.6061 0.052887 12.5617 0.0643518 12.5226 0.0861353L9.43145 1.80749H9.4308C9.42051 1.81371 9.41183 1.82149 9.4025 1.82864C9.39413 1.83486 9.38481 1.84046 9.37741 1.84731C9.3684 1.85633 9.36197 1.8666 9.35425 1.87655C9.34878 1.88402 9.34138 1.89055 9.33688 1.89864C9.32948 1.91109 9.3253 1.92415 9.32015 1.93722C9.31758 1.94437 9.31308 1.95091 9.31115 1.95837C9.30522 1.97957 9.3022 2.00143 9.30214 2.0234V8.41943L6.72631 6.98492V3.71519C6.72631 3.69341 6.7231 3.67133 6.71731 3.65048C6.71506 3.64302 6.71087 3.63648 6.7083 3.62933C6.70315 3.61626 6.69865 3.60288 6.69157 3.59075C6.68675 3.58266 6.67967 3.57613 6.6742 3.56866C6.66648 3.55871 6.66005 3.54844 6.65104 3.53973C6.64365 3.53257 6.63432 3.52728 6.62596 3.52106C6.61631 3.5136 6.60794 3.50551 6.59765 3.4996L3.50589 1.77824C3.46676 1.75643 3.42239 1.74495 3.37722 1.74495C3.33206 1.74495 3.28769 1.75643 3.24856 1.77824L0.157438 3.4996C0.146502 3.50582 0.138139 3.5136 0.128489 3.52075C0.120448 3.52697 0.11112 3.53257 0.103722 3.53942C0.0947151 3.54844 0.0882816 3.55871 0.0805616 3.56866C0.0747719 3.57613 0.0676956 3.58266 0.0631924 3.59075C0.0557938 3.60288 0.0516129 3.61626 0.0464668 3.62933C0.0435715 3.63648 0.0393906 3.64302 0.0374603 3.65048ZM0.543748 6.98492V4.14639L1.62548 4.74869L3.1199 5.5809V8.41943L0.543426 6.98492H0.543748ZM3.63487 12.1197V9.27933L5.10484 10.0913L9.30246 12.4084V15.2756L3.63487 12.1197ZM15.4847 2.45428V12.1197L9.81776 15.2753V12.4088L12.7783 10.7882L12.7793 10.7876L12.7805 10.787C12.7905 10.7814 12.7989 10.7733 12.8082 10.7664C12.8162 10.7602 12.8256 10.7552 12.8326 10.7484L12.8333 10.7474C12.8417 10.7397 12.8474 10.73 12.8545 10.7213C12.861 10.7129 12.8687 10.7058 12.8738 10.697L12.8741 10.6961C12.8799 10.6868 12.8835 10.6756 12.8876 10.665C12.8918 10.6557 12.8973 10.647 12.8999 10.637C12.9031 10.6252 12.9037 10.6124 12.905 10.6003C12.9063 10.591 12.9089 10.5816 12.9089 10.5723V3.88879L14.403 3.05627L15.4847 2.45428ZM12.6509 0.589506L15.2264 2.0234L12.6516 3.45728L10.0764 2.02308L12.6516 0.589506H12.6509ZM11.3115 9.53817L9.81743 8.70627V2.45428L10.8992 3.05658L12.3936 3.88879V10.1408L11.3115 9.53817ZM3.37722 2.28161L5.95241 3.7155L3.37722 5.14939L0.80236 3.71519L3.37722 2.28161ZM3.63487 5.5809L5.12929 4.74869L6.21102 4.14639V6.98492L4.71692 7.81682L3.63487 8.41943V5.5809ZM9.56043 11.9776L5.78322 9.8919L3.89509 8.84969L6.46834 7.41674L9.43112 9.06653L12.1314 10.5701L9.56043 11.9776Z" fill="#12141D"/>
</g>
<defs>
<clipPath id="clip0_5526_8107">
<rect width="16" height="16" fill="white" transform="matrix(-1 0 0 1 16 0)"/>
</clipPath>
</defs>
</svg>
