<svg width="17" height="17" viewBox="0 0 17 17" fill="none" xmlns="http://www.w3.org/2000/svg">
<path d="M0.865234 9.19602V0.46875L6.86527 4.83239V7.74148L2.86525 4.83239V10.6506L0.865234 9.19602Z" fill="#00B0FF"/>
<path d="M0.865234 9.19602V0.46875L6.86527 4.83239V7.74148L2.86525 4.83239V10.6506L0.865234 9.19602Z" fill="#263238"/>
<path d="M6.86523 4.83239L12.8653 0.46875V9.19602L8.86525 12.1051L6.86523 10.6506L10.8653 7.74148V4.83239L6.86523 7.74148V4.83239Z" fill="#12141D"/>
<path d="M6.86523 4.83239L12.8653 0.46875V9.19602L8.86525 12.1051L6.86523 10.6506L10.8653 7.74148V4.83239L6.86523 7.74148V4.83239Z" fill="#12141D"/>
<path d="M6.86523 10.6505V13.5596L10.8653 16.4687V13.5596L6.86523 10.6505Z" fill="#00B0FF"/>
<path d="M6.86523 10.6505V13.5596L10.8653 16.4687V13.5596L6.86523 10.6505Z" fill="#263238"/>
<path d="M10.8652 16.4688L16.8653 12.1051V6.28693L14.8653 7.74148V10.6506L10.8652 13.5597V16.4688ZM14.8653 4.83239V1.9233L16.8653 0.46875V3.37784L14.8653 4.83239Z" fill="#12141D"/>
<path d="M10.8652 16.4688L16.8653 12.1051V6.28693L14.8653 7.74148V10.6506L10.8652 13.5597V16.4688ZM14.8653 4.83239V1.9233L16.8653 0.46875V3.37784L14.8653 4.83239Z" fill="#12141D"/>
</svg>
