<svg width="16" height="16" viewBox="0 0 16 16" fill="none" xmlns="http://www.w3.org/2000/svg">
<path d="M7.89063 0.0429993L8.84017 0.84527C9.04689 0.989987 9.28754 1.12433 9.55799 1.24601C10.3533 1.60332 11.1104 1.97784 11.7881 2.37898C13.398 3.32878 14.4843 4.38348 15.2605 5.52544C15.7257 6.22283 15.9783 6.93744 15.9975 7.66065C16.0759 9.82209 14.4259 11.6783 11.0895 13.221C10.5489 13.4655 9.96502 13.69 9.34369 13.8921C9.01266 13.8921 8.85847 13.7747 8.72257 13.6742C8.46122 13.4785 8.31487 13.2644 8.23734 13.0468C8.12061 12.7854 8.04308 12.524 8.08228 12.2536V12.1314C8.06311 12.1052 7.77215 0.104442 7.88801 0.0433908L7.89063 0.0429993Z" fill="#263238"/>
<path d="M7.8901 0.0173217C7.8509 -0.0179 7.8117 0.00871205 7.77337 0.0259315C7.79253 0.200083 7.65663 0.357015 7.44233 0.505337C7.20974 0.65405 6.89874 0.766759 6.58861 0.888861C4.86201 1.56003 3.50477 2.37052 2.41758 3.27689C0.981942 4.49712 0.225791 5.80423 0.0132324 7.1814C-0.0825932 7.67841 0.361689 9.4301 0.711888 9.93534C1.66143 11.2777 3.36887 12.4016 5.59028 13.3777C6.13388 13.6125 6.7158 13.8308 7.31689 14.0398C7.49112 14.0398 7.51115 13.9702 7.54948 13.9177C7.62592 13.8064 7.68415 13.6928 7.72371 13.5776C7.89794 13.1421 7.99551 12.7061 8.11137 12.2705L7.89794 0.0173217H7.8901Z" fill="#12141D"/>
<path d="M8.8424 14.4236C8.8816 14.2233 9.10374 14.0577 9.32762 13.8922C9.09503 13.8491 8.91993 13.7615 8.78403 13.6652C8.6673 13.5779 8.5706 13.4695 8.49307 13.3776C8.22127 13.0116 8.16204 12.6281 8.08538 12.2532V12.0262C7.98955 12.0614 7.96864 12.3573 7.96864 12.4011C7.91028 12.8019 7.79441 13.1944 7.62019 13.5775C7.56182 13.7341 7.52436 13.8914 7.31006 14.0307C7.31006 14.0483 7.31006 14.0659 7.32922 14.0918C7.67768 14.5536 7.77525 15.0244 7.83449 15.5038V15.6779C7.83449 15.8869 7.81532 15.8435 8.20298 15.9127C8.35804 15.9389 8.53401 15.9479 8.68821 16C8.80494 16 8.8241 15.9569 8.8241 15.9217L8.76574 15.6341V14.8318C8.74657 14.6925 8.80494 14.5528 8.84414 14.4221L8.8424 14.4236Z" fill="#5D5E67"/>
</svg>
