<svg width="17" height="16" viewBox="0 0 17 16" fill="none" xmlns="http://www.w3.org/2000/svg">
<path fill-rule="evenodd" clip-rule="evenodd" d="M14.8948 12.1529C14.0246 12.1312 13.3605 12.2073 12.7836 12.4575C12.6207 12.5229 12.3702 12.5229 12.3378 12.7297C12.4249 12.8163 12.4463 12.958 12.5117 13.078C12.6532 13.2958 12.8819 13.5892 13.0885 13.7416C13.3063 13.916 13.5348 14.0899 13.7741 14.2424C14.2095 14.5033 14.6882 14.6448 15.0907 14.9065C15.3411 15.0584 15.5804 15.2548 15.8199 15.4287C15.9285 15.5157 16.0158 15.6465 16.1572 15.7006V15.6792C16.0811 15.5811 16.0592 15.4397 15.9938 15.3304L15.6675 15.0041C15.3521 14.5906 14.9492 14.2204 14.5246 13.916C14.1873 13.6765 13.4256 13.3392 13.2841 12.9475C13.2731 12.9365 13.2622 12.9365 13.2622 12.9256C13.5017 12.8926 13.7848 12.806 14.0024 12.7512C14.3726 12.6536 14.7097 12.6751 15.0904 12.5773C15.2648 12.5226 15.4387 12.4792 15.6131 12.4248V12.3268C15.4172 12.1309 15.2868 11.859 15.0692 11.6849C14.5143 11.2061 13.9046 10.738 13.2844 10.3463C12.9361 10.1178 12.5117 9.97635 12.1419 9.79148C12.0219 9.73709 11.8041 9.70441 11.7176 9.59563C11.5212 9.35612 11.4237 9.04052 11.2712 8.7576C10.952 8.13692 10.6544 7.50533 10.3791 6.86398C10.1942 6.4396 10.0632 6.01521 9.83516 5.62327C8.70323 3.77331 7.49521 2.6526 5.61281 1.55336C5.21038 1.32483 4.73161 1.22702 4.21991 1.10727C3.94797 1.08532 3.67602 1.07459 3.40383 1.05264C3.24042 0.987271 3.06652 0.780691 2.90311 0.682644C2.28288 0.290945 0.683156 -0.568793 0.225849 0.56289C-0.0680477 1.27019 0.661205 1.96676 0.922176 2.32602C1.10754 2.57626 1.33558 2.85943 1.46655 3.1421C1.55314 3.32698 1.56411 3.5121 1.64045 3.70795C1.82533 4.19769 1.97776 4.73085 2.20629 5.17694C2.3258 5.40547 2.45629 5.64498 2.60873 5.8518C2.6958 5.97156 2.85921 6.02595 2.88067 6.2218C2.72824 6.43935 2.71775 6.76593 2.63068 7.03788C2.24971 8.26761 2.39117 9.78026 2.95701 10.6941C3.1314 10.9661 3.53383 11.5646 4.09991 11.3363C4.58966 11.1295 4.48064 10.52 4.6221 9.96513C4.65502 9.84538 4.63307 9.75831 4.69819 9.67124V9.69294C4.83965 9.99757 4.99209 10.2915 5.14453 10.5851C5.47086 11.1185 6.05865 11.6844 6.55937 12.0541C6.80937 12.25 7.0162 12.5875 7.35351 12.6961V12.6741H7.32106C7.2557 12.5765 7.15766 12.5329 7.08156 12.4565C6.88571 12.2607 6.66815 12.0212 6.50474 11.8036C6.0589 11.1941 5.65622 10.5195 5.28623 9.82294C5.11184 9.48563 4.95941 9.11564 4.81844 8.77833C4.76356 8.64784 4.76356 8.45199 4.64405 8.37565C4.48064 8.62589 4.2526 8.83272 4.12138 9.12661C3.92553 9.59465 3.89309 10.1712 3.82797 10.759C3.78407 10.7807 3.79504 10.7697 3.77309 10.7917C3.42529 10.7046 3.30529 10.3454 3.17481 10.0407C2.85945 9.26807 2.79384 8.02761 3.07677 7.13519C3.15286 6.90666 3.49066 6.18838 3.3492 5.97083C3.28335 5.764 3.07676 5.63352 2.95725 5.47035C2.80482 5.2745 2.66336 5.01328 2.55483 4.78475C2.29386 4.17525 2.17386 3.50063 1.89069 2.89138C1.74923 2.59748 1.53192 2.30359 1.3468 2.05335C1.13997 1.75945 0.911442 1.55287 0.748519 1.20458C0.694129 1.08483 0.618035 0.88898 0.694131 0.758251C0.726569 0.67118 0.759495 0.638498 0.846079 0.605816C0.98754 0.497037 1.39046 0.649473 1.54241 0.703619C1.93435 0.877761 2.27166 1.0302 2.60897 1.25873C2.77238 1.36751 2.93579 1.57409 3.13164 1.62872H3.34944C3.69773 1.70482 4.08918 1.65043 4.41552 1.74847C4.99233 1.92237 5.51452 2.19456 5.9828 2.49943C7.41911 3.40259 8.58372 4.6867 9.38883 6.22106C9.51932 6.4713 9.5737 6.69983 9.68273 6.96105C9.9115 7.49445 10.2049 8.03834 10.4334 8.5498C10.6512 9.07222 10.8798 9.59465 11.1951 10.0188C11.3695 10.2473 12.0222 10.3671 12.3161 10.4866C12.5229 10.5737 12.86 10.6715 13.0563 10.7915C13.437 11.009 13.7961 11.2812 14.1553 11.5314C14.329 11.6524 14.8729 11.9244 14.8948 12.1529Z" fill="#12141D"/>
<path fill-rule="evenodd" clip-rule="evenodd" d="M3.79472 2.69653C3.64444 2.69658 3.49472 2.71493 3.34888 2.75117V2.77287H3.38131C3.46839 2.94702 3.62082 3.06677 3.7296 3.21896C3.8057 3.3931 3.89302 3.56725 3.96911 3.74139L4.00155 3.70871C4.15399 3.6109 4.21935 3.43676 4.21935 3.16482C4.16496 3.09945 4.15399 3.02336 4.09984 2.94702C4.0235 2.83799 3.89301 2.7836 3.79472 2.69653Z" fill="#12141D"/>
</svg>
