<svg width="16" height="16" viewBox="0 0 16 16" fill="none" xmlns="http://www.w3.org/2000/svg">
<path d="M7.47605 0.00430566C7.44164 0.00743325 7.33216 0.0183798 7.23363 0.0261988C4.96109 0.231056 2.83245 1.45707 1.48426 3.34145C0.733529 4.38919 0.253372 5.57768 0.0719453 6.83654C0.00782014 7.27596 0 7.40576 0 8.00157C0 8.59737 0.00782014 8.72717 0.0719453 9.1666C0.506745 12.1707 2.64477 14.6946 5.54448 15.6298C6.06373 15.7971 6.61114 15.9113 7.23363 15.9801C7.47605 16.0066 8.52395 16.0066 8.76637 15.9801C9.84086 15.8612 10.7511 15.5954 11.6489 15.1372C11.7865 15.0668 11.8131 15.048 11.7943 15.0324C11.7818 15.023 11.1953 14.2364 10.4915 13.2856L9.21212 11.5576L7.60899 9.18536C6.72688 7.88115 6.00117 6.81464 5.99492 6.81464C5.98866 6.81308 5.9824 7.86708 5.97928 9.15409C5.97458 11.4075 5.97302 11.4982 5.94487 11.5514C5.9042 11.628 5.87292 11.6593 5.80723 11.6937C5.75718 11.7187 5.71339 11.7234 5.47722 11.7234H5.20665L5.1347 11.6781C5.08778 11.6483 5.05337 11.6092 5.02991 11.5639L4.99707 11.4935L5.0002 8.35811L5.00489 5.22113L5.05337 5.16015C5.0784 5.12731 5.13157 5.08508 5.16911 5.06475C5.23324 5.03348 5.25826 5.03035 5.52884 5.03035C5.8479 5.03035 5.90108 5.04286 5.98397 5.13356C6.00743 5.15858 6.87546 6.46592 7.91398 8.04066C8.95249 9.61541 10.3726 11.7656 11.0702 12.8212L12.337 14.74L12.4012 14.6977C12.9689 14.3287 13.5695 13.8033 14.045 13.2559C15.0569 12.094 15.7091 10.6772 15.9281 9.1666C15.9922 8.72717 16 8.59737 16 8.00157C16 7.40576 15.9922 7.27596 15.9281 6.83654C15.4933 3.83248 13.3552 1.30851 10.4555 0.373362C9.94409 0.207599 9.3998 0.0934421 8.78983 0.024635C8.63969 0.00899705 7.60587 -0.00820472 7.47605 0.00430566ZM10.7511 4.8427C10.8262 4.88023 10.8872 4.95216 10.9091 5.02722C10.9216 5.06788 10.9247 5.93735 10.9216 7.89679L10.9169 10.7085L10.4211 9.94849L9.92375 9.18849V7.14461C9.92375 5.8232 9.93001 5.08039 9.93939 5.04443C9.96442 4.95685 10.0192 4.88804 10.0942 4.84739C10.1584 4.81455 10.1818 4.81142 10.4274 4.81142C10.6588 4.81142 10.6995 4.81455 10.7511 4.8427Z" fill="#12141D"/>
<path d="M12.259 14.7744C12.2043 14.8088 12.187 14.8322 12.2355 14.8056C12.2699 14.7853 12.3262 14.7431 12.3169 14.7415C12.3122 14.7415 12.2856 14.7572 12.259 14.7744ZM12.1511 14.8447C12.1229 14.8666 12.1229 14.8682 12.1573 14.851C12.1761 14.8416 12.1917 14.8307 12.1917 14.8275C12.1917 14.815 12.1839 14.8181 12.1511 14.8447ZM12.0729 14.8916C12.0447 14.9135 12.0447 14.9151 12.0791 14.8979C12.0979 14.8885 12.1135 14.8776 12.1135 14.8744C12.1135 14.8619 12.1057 14.8651 12.0729 14.8916ZM11.9947 14.9386C11.9665 14.9604 11.9665 14.962 12.0009 14.9448C12.0197 14.9354 12.0353 14.9245 12.0353 14.9214C12.0353 14.9088 12.0275 14.912 11.9947 14.9386ZM11.8758 15.0011C11.8164 15.0324 11.8195 15.0449 11.8789 15.0152C11.9055 15.0011 11.9259 14.987 11.9259 14.9839C11.9259 14.973 11.9243 14.9745 11.8758 15.0011Z" fill="#12141D"/>
</svg>
