<svg width="16" height="16" viewBox="0 0 16 16" fill="none" xmlns="http://www.w3.org/2000/svg">
<mask id="mask0_5526_8001" style="mask-type:alpha" maskUnits="userSpaceOnUse" x="0" y="0" width="16" height="16">
<path d="M8.43256 0.1005C8.30072 0.034634 8.15163 0 7.99993 0C7.84823 0 7.69913 0.034634 7.5673 0.1005L0.424263 3.71874C0.152676 3.85274 0 4.10591 0 4.3739V11.6258C0 11.8938 0.169705 12.147 0.424263 12.281L7.5673 15.8995C7.69913 15.9654 7.84823 16 7.99993 16C8.15163 16 8.30072 15.9654 8.43256 15.8995L15.5757 12.281C15.8472 12.147 16 11.8938 16 11.6258V4.37403C16 4.10604 15.8301 3.85287 15.5757 3.71887L8.43256 0.1005Z" fill="white"/>
</mask>
<g mask="url(#mask0_5526_8001)">
<path d="M8.43256 0.1005C8.30072 0.034634 8.15163 0 7.99993 0C7.84823 0 7.69913 0.034634 7.5673 0.1005L0.424263 3.71874C0.152676 3.85274 0 4.10591 0 4.3739V11.6258C0 11.8938 0.169705 12.147 0.424263 12.281L7.5673 15.8995C7.69913 15.9654 7.84823 16 7.99993 16C8.15163 16 8.30072 15.9654 8.43256 15.8995L15.5757 12.281C15.8472 12.147 16 11.8938 16 11.6258V4.37403C16 4.10604 15.8301 3.85287 15.5757 3.71887L8.43256 0.1005Z" fill="#12141D"/>
<path d="M15.5913 3.71884L8.41437 0.100471C8.34385 0.0692178 8.26993 0.0442689 8.19372 0.026001L0.151367 12.1175C0.217986 12.1889 0.298447 12.2494 0.389043 12.2962L7.56599 15.9147C7.76961 16.0189 8.00713 16.0487 8.22763 15.989L15.778 3.86791C15.7271 3.80839 15.6591 3.76355 15.5913 3.71897V3.71884Z" fill="#12141D"/>
<path fill-rule="evenodd" clip-rule="evenodd" d="M15.6069 12.2811C15.8105 12.1768 15.9632 11.9981 16.0312 11.8046L8.15824 0.0110197C7.95463 -0.0187426 7.73398 -0.00392592 7.54754 0.100306L0.421387 3.70399L8.1073 16.0038C8.21908 15.9877 8.32765 15.9577 8.42968 15.9145L15.6068 12.2812L15.6069 12.2811Z" fill="#12141D"/>
<path fill-rule="evenodd" clip-rule="evenodd" d="M15.6099 12.2809L8.44982 15.8994C8.34874 15.9447 8.2398 15.9748 8.12744 15.9887L8.26323 16.2121L16.2037 12.1768V12.0874L16.0001 11.7895C15.9662 11.998 15.8135 12.1767 15.6099 12.2809Z" fill="#12141D"/>
<path fill-rule="evenodd" clip-rule="evenodd" d="M15.6099 12.2809L8.44982 15.8994C8.34874 15.9447 8.2398 15.9748 8.12744 15.9887L8.26323 16.2121L16.2037 12.1768V12.0874L16.0001 11.7895C15.9662 11.998 15.8135 12.1767 15.6099 12.2809Z" fill="#12141D"/>
</g>
</svg>
