<svg width="10" height="10" viewBox="0 0 10 10" fill="none" xmlns="http://www.w3.org/2000/svg">
<path d="M9.75694 5.89716C9.70015 5.7253 9.55138 5.6056 9.35899 5.57688C9.26827 5.56335 9.16438 5.56911 9.04144 5.59444C8.82715 5.63861 8.66817 5.65543 8.55215 5.65869C8.99009 4.9199 9.34619 4.07743 9.55119 3.28437C9.88269 2.00203 9.70555 1.41784 9.49855 1.1536C8.95072 0.454188 8.15146 0.078456 7.18723 0.0669593C6.67285 0.0606749 6.2213 0.162149 5.98574 0.235122C5.76641 0.196454 5.53059 0.174866 5.28315 0.170873C4.81931 0.16348 4.40949 0.26451 4.05931 0.472154C3.86544 0.406648 3.55429 0.314305 3.19497 0.25538C2.34987 0.116754 1.66874 0.224771 1.17054 0.576437C0.567252 1.00222 0.287588 1.742 0.33931 2.77523C0.355737 3.10327 0.539393 4.10138 0.828567 5.04796C0.99476 5.59203 1.17198 6.04384 1.3553 6.39096C1.61528 6.88318 1.89347 7.17303 2.20577 7.27713C2.3808 7.33539 2.69883 7.3762 3.03333 7.09784C3.07573 7.14915 3.1323 7.20013 3.20736 7.24749C3.30271 7.30756 3.41929 7.35665 3.53572 7.38574C3.95531 7.49054 4.34833 7.46433 4.68364 7.31743C4.68571 7.37702 4.6873 7.43395 4.68864 7.48311C4.69086 7.56285 4.69308 7.64104 4.696 7.71416C4.71587 8.20855 4.74954 8.59297 4.84928 8.86194C4.85476 8.87673 4.86212 8.89928 4.86989 8.9232C4.91965 9.07543 5.00286 9.33028 5.21456 9.52986C5.43377 9.73662 5.69893 9.80001 5.94178 9.80001C6.06358 9.80001 6.17979 9.78404 6.28172 9.76223C6.64503 9.68442 7.05767 9.5659 7.35616 9.14123C7.63838 8.73977 7.77557 8.1351 7.80039 7.18235C7.80361 7.1554 7.80657 7.12967 7.80942 7.10516L7.81534 7.05481L7.88183 7.06066L7.89896 7.0618C8.26901 7.07866 8.72149 7.00025 8.99937 6.87127C9.21896 6.76947 9.92261 6.39828 9.75694 5.89716Z" fill="black"/>
<path d="M9.12426 5.99457C8.02395 6.22136 7.94829 5.84914 7.94829 5.84914C9.11001 4.12674 9.59568 1.9404 9.17661 1.40531C8.03324 -0.0543305 6.05405 0.63599 6.02101 0.653882L6.01039 0.655804C5.793 0.610704 5.54974 0.583866 5.27629 0.579393C4.77845 0.571261 4.40078 0.709813 4.11419 0.926956C4.11419 0.926956 0.583512 -0.526361 0.747744 2.75475C0.78267 3.45276 1.74905 8.03632 2.90167 6.65187C3.32296 6.14561 3.73005 5.71757 3.73005 5.71757C3.9322 5.85176 4.17424 5.92023 4.42797 5.89564L4.44769 5.87893C4.44155 5.94178 4.44436 6.00325 4.45557 6.07604C4.15863 6.40752 4.2459 6.46571 3.65231 6.58781C3.05166 6.7115 3.4045 6.93168 3.63489 6.98927C3.91418 7.05903 4.56031 7.15788 4.99688 6.54722L4.97949 6.6169C5.09581 6.71002 5.1775 7.22253 5.16381 7.68717C5.15013 8.15177 5.14099 8.47076 5.23263 8.71991C5.32435 8.96907 5.41569 9.52967 6.19605 9.36262C6.84806 9.223 7.18596 8.8612 7.23298 8.25768C7.26631 7.82864 7.34183 7.89208 7.34656 7.50847L7.40713 7.32689C7.47694 6.74529 7.41823 6.55765 7.81991 6.64492L7.91758 6.6535C8.21319 6.66692 8.60019 6.60596 8.82732 6.50049C9.31635 6.27374 9.60641 5.89509 9.12418 5.99457H9.12426Z" fill="#12141D"/>
<path d="M4.32076 3.06694C4.2216 3.05315 4.13181 3.06591 4.08638 3.10028C4.06085 3.11962 4.05293 3.14202 4.05079 3.15744C4.04509 3.19828 4.07372 3.24346 4.09134 3.26675C4.14113 3.3327 4.21387 3.37802 4.28587 3.388C4.2963 3.38948 4.3067 3.39014 4.31702 3.39014C4.43708 3.39014 4.54626 3.29673 4.55588 3.22778C4.5679 3.14143 4.44244 3.08387 4.32076 3.06698V3.06694ZM7.60555 3.06968C7.59608 3.00199 7.47554 2.98269 7.36115 2.99859C7.2469 3.01448 7.13613 3.06602 7.14538 3.13385C7.15278 3.1866 7.24812 3.27665 7.36096 3.27665C7.37051 3.27665 7.38013 3.27603 7.38982 3.27466C7.46515 3.26423 7.52042 3.21643 7.54669 3.18889C7.58665 3.1469 7.60981 3.1001 7.60555 3.06968Z" fill="white"/>
<path d="M9.49048 5.96885C9.44852 5.84209 9.31348 5.80132 9.08913 5.8476C8.42298 5.98497 8.18442 5.88982 8.1061 5.83219C8.62388 5.04405 9.04984 4.09134 9.27963 3.20247C9.38847 2.78142 9.4486 2.39038 9.45352 2.07165C9.45895 1.72183 9.39931 1.46477 9.27633 1.30773C8.78049 0.674673 8.05275 0.335094 7.17184 0.325779C6.56622 0.318977 6.05455 0.473831 5.95535 0.517378C5.74647 0.465477 5.51875 0.433611 5.27082 0.429545C4.8162 0.422189 4.42321 0.530945 4.09785 0.752636C3.95652 0.700069 3.59128 0.574788 3.14461 0.502887C2.3724 0.378678 1.75875 0.472796 1.32085 0.782764C0.798332 1.15265 0.557107 1.81384 0.603835 2.74793C0.619559 3.06218 0.798776 4.02894 1.08159 4.95478C1.45386 6.17335 1.85854 6.86319 2.2843 7.00511C2.33414 7.02171 2.3916 7.03332 2.45497 7.03332C2.61029 7.03332 2.80072 6.96337 2.99884 6.72538C3.24049 6.43573 3.49046 6.15311 3.74845 5.87788C3.91582 5.96763 4.0997 6.01776 4.28776 6.02279C4.28813 6.0277 4.28861 6.03262 4.28906 6.0375C4.25668 6.07607 4.22499 6.1152 4.19397 6.15487C4.06367 6.32015 4.03655 6.35457 3.61711 6.44085C3.49779 6.46547 3.1809 6.53071 3.17624 6.75266C3.17121 6.99517 3.55084 7.09701 3.59409 7.1078C3.74482 7.14551 3.89004 7.1641 4.02852 7.1641C4.36531 7.1641 4.6617 7.0535 4.89856 6.8395C4.89127 7.70401 4.92734 8.55587 5.03123 8.81542C5.11632 9.0279 5.32418 9.54718 5.98074 9.54714C6.07708 9.54714 6.18311 9.53594 6.29977 9.51095C6.985 9.36419 7.28257 9.06158 7.39767 8.39444C7.45927 8.03789 7.56497 7.18651 7.6147 6.72982C7.71962 6.76253 7.8547 6.7775 8.00073 6.77747C8.30529 6.77747 8.65674 6.71281 8.87713 6.6106C9.12472 6.49571 9.5715 6.2138 9.49048 5.96885ZM7.85866 2.88285C7.8564 3.01767 7.83783 3.14007 7.81815 3.26783C7.79695 3.40523 7.77505 3.5473 7.76953 3.71975C7.76409 3.88758 7.78507 4.06206 7.80535 4.23082C7.84634 4.57165 7.88841 4.92254 7.72558 5.26877C7.69853 5.22089 7.67444 5.1714 7.65343 5.12057C7.6332 5.07156 7.58924 4.99282 7.52838 4.88384C7.29163 4.4596 6.73723 3.46616 7.02103 3.06078C7.10557 2.94012 7.32012 2.81606 7.85866 2.88285ZM7.20587 0.598779C7.99518 0.616191 8.61955 0.911224 9.0616 1.47563C9.40065 1.90855 9.0273 3.87841 7.94649 5.57782C7.93562 5.56401 7.9247 5.55024 7.91371 5.53652L7.90002 5.51945C8.17932 5.05858 8.12471 4.60259 8.0761 4.19832C8.05612 4.03241 8.03725 3.87571 8.04206 3.72851C8.04702 3.57251 8.06766 3.43869 8.08764 3.3093C8.11217 3.14987 8.13714 2.98488 8.13026 2.7904C8.1354 2.76999 8.13747 2.74589 8.13477 2.71728C8.1172 2.53078 7.90409 1.97262 7.46974 1.46743C7.23214 1.1911 6.88566 0.881872 6.41257 0.673305C6.61606 0.631163 6.89432 0.591867 7.20587 0.598779ZM2.78917 6.55119C2.57089 6.81344 2.42016 6.76316 2.37058 6.74667C2.04759 6.63903 1.67281 5.95691 1.34238 4.87526C1.05646 3.93933 0.889383 2.99819 0.876138 2.73428C0.834404 1.89965 1.03689 1.31797 1.47801 1.00538C2.19592 0.496714 3.37621 0.801173 3.85049 0.955584C3.84368 0.962312 3.83658 0.968597 3.82984 0.975435C3.05156 1.76076 3.07002 3.10251 3.07195 3.18454C3.07187 3.21619 3.07454 3.26099 3.07816 3.32261C3.09155 3.5483 3.11649 3.96831 3.0499 4.44397C2.98804 4.88598 3.12441 5.3186 3.42398 5.63094C3.45472 5.66293 3.48704 5.69338 3.5208 5.72217C3.38746 5.86487 3.09766 6.18041 2.78917 6.55119ZM3.62084 5.44244C3.3794 5.1907 3.26974 4.84055 3.31994 4.48167C3.39024 3.97922 3.3643 3.5416 3.35035 3.3065C3.34839 3.27359 3.34665 3.24476 3.34565 3.22203C3.45935 3.12129 3.98623 2.83923 4.36198 2.92526C4.53343 2.96448 4.63791 3.08114 4.68134 3.2818C4.90614 4.32068 4.71109 4.75368 4.55437 5.10165C4.52207 5.17332 4.49154 5.24109 4.4655 5.31117L4.4453 5.36537C4.39417 5.50237 4.34659 5.62976 4.3171 5.75071C4.06041 5.74997 3.81071 5.6404 3.62084 5.44241V5.44244ZM3.66025 6.84349C3.58529 6.82478 3.51788 6.79229 3.47833 6.76534C3.51137 6.74982 3.57016 6.72867 3.67212 6.70767C4.16556 6.6062 4.24177 6.53456 4.40819 6.32344C4.44633 6.27501 4.48958 6.22015 4.54948 6.15332L4.54956 6.15324C4.63876 6.05343 4.67957 6.07036 4.75356 6.10105C4.81353 6.12581 4.87195 6.20093 4.89563 6.28359C4.90684 6.32263 4.91942 6.39671 4.87824 6.45438C4.53061 6.94071 4.02404 6.93447 3.66025 6.84349ZM6.24264 9.24457C5.63899 9.3738 5.42525 9.06605 5.2844 8.71424C5.1935 8.48711 5.14881 7.46291 5.18051 6.33183C5.18092 6.31679 5.17877 6.30226 5.17463 6.28858C5.17092 6.26157 5.16529 6.23486 5.15776 6.20866C5.11063 6.04408 4.99575 5.90642 4.85793 5.84934C4.80317 5.82668 4.70269 5.78509 4.58193 5.81596C4.60768 5.70994 4.65234 5.5902 4.70077 5.46056L4.72108 5.40603C4.74394 5.34456 4.77265 5.28086 4.80299 5.21343C4.967 4.84938 5.19161 4.35074 4.94784 3.22424C4.85653 2.8023 4.55159 2.59625 4.08934 2.64412C3.81223 2.67277 3.55869 2.78449 3.43223 2.84855C3.40504 2.8623 3.38017 2.87561 3.35694 2.88855C3.39223 2.46343 3.52557 1.66893 4.02438 1.16626C4.33845 0.849822 4.75671 0.693526 5.26631 0.701954C6.27043 0.718367 6.91433 1.23324 7.27772 1.66232C7.59087 2.03202 7.76043 2.40447 7.8281 2.60534C7.3192 2.55363 6.97309 2.65399 6.79764 2.90463C6.41594 3.44982 7.00646 4.50796 7.29027 5.01651C7.34232 5.1097 7.38724 5.19026 7.40137 5.22449C7.49379 5.44829 7.61344 5.5977 7.70079 5.70676C7.72758 5.74018 7.75355 5.7726 7.77331 5.80091C7.61917 5.84531 7.34232 5.94789 7.36755 6.46066C7.34721 6.71795 7.20251 7.92255 7.12899 8.34816C7.03195 8.91042 6.82487 9.11984 6.24264 9.2446V9.24457ZM8.76233 6.36351C8.60472 6.4366 8.34096 6.49142 8.09041 6.50321C7.81367 6.51615 7.67278 6.47223 7.63963 6.44521C7.6241 6.12567 7.74312 6.09229 7.86909 6.05695C7.88889 6.0514 7.9082 6.04597 7.92685 6.03946C7.93843 6.04889 7.95112 6.05824 7.96503 6.06741C8.18746 6.21409 8.58418 6.22991 9.14429 6.11439L9.15043 6.11317C9.07488 6.18374 8.94561 6.27845 8.76233 6.36351Z" fill="white"/>
</svg>
