<svg width="16" height="16" viewBox="0 0 16 16" fill="none" xmlns="http://www.w3.org/2000/svg">
<path d="M15.8293 7.94881C15.8293 6.99022 14.52 6.08175 12.5125 5.51838C12.9758 3.64245 12.7699 2.14996 11.8627 1.67213C11.6535 1.56004 11.4091 1.50695 11.1421 1.50695V2.16471C11.2901 2.16471 11.4091 2.19125 11.5088 2.24139C11.9463 2.47146 12.1362 3.34749 11.9881 4.47423C11.9528 4.75149 11.8949 5.0435 11.8241 5.34141C11.1935 5.19983 10.5051 5.09069 9.78125 5.0199C9.34696 4.47423 8.89657 3.9787 8.44293 3.54511C9.4917 2.65139 10.4762 2.16175 11.1453 2.16175V1.504C10.2606 1.504 9.10245 2.08212 7.93146 3.08497C6.7604 2.08801 5.60229 1.5158 4.71761 1.5158V2.17355C5.38353 2.17355 6.37115 2.66024 7.41992 3.54806C6.96952 3.98165 6.51912 4.47423 6.09124 5.0199C5.36418 5.09069 4.67574 5.19983 4.04521 5.34435C3.97119 5.0494 3.91652 4.76328 3.87789 4.48898C3.72675 3.36224 3.91328 2.48621 4.34764 2.25319C4.44411 2.2001 4.56956 2.17651 4.71761 2.17651V1.51875C4.44734 1.51875 4.20283 1.57184 3.99054 1.68392C3.08651 2.16175 2.88387 3.65129 3.3503 5.52133C1.3493 6.08765 0.0463867 6.99318 0.0463867 7.94881C0.0463867 8.90748 1.35573 9.81595 3.36318 10.3793C2.89991 12.2553 3.10579 13.7477 4.01306 14.2255C4.22218 14.3376 4.46662 14.3907 4.73689 14.3907C5.62157 14.3907 6.77975 13.8126 7.95074 12.8097C9.12173 13.8067 10.2799 14.379 11.1646 14.379C11.4348 14.379 11.6793 14.3259 11.8917 14.2137C12.7956 13.7359 12.9983 12.2463 12.5318 10.3764C14.5264 9.81298 15.8293 8.90451 15.8293 7.94881ZM11.6407 5.98146C11.5217 6.36199 11.3737 6.75423 11.2064 7.14653C11.0745 6.91061 10.9362 6.67462 10.785 6.43863C10.637 6.20269 10.4793 5.97262 10.3217 5.74845C10.7785 5.81039 11.2193 5.88708 11.6407 5.98146ZM10.1673 9.12276C9.91634 9.521 9.65903 9.89853 9.392 10.2495C8.91261 10.2879 8.42689 10.3085 7.93786 10.3085C7.45207 10.3085 6.96628 10.2879 6.49021 10.2524C6.22318 9.90143 5.96255 9.52687 5.71163 9.1316C5.46712 8.74523 5.24519 8.35292 5.04248 7.95772C5.24196 7.56245 5.46712 7.16717 5.70847 6.78081C5.95938 6.38263 6.2167 6.00506 6.48373 5.65406C6.96312 5.61572 7.44884 5.59507 7.93786 5.59507C8.42365 5.59507 8.90944 5.61571 9.38552 5.65111C9.65255 6.00212 9.91318 6.3767 10.1641 6.77197C10.4086 7.15834 10.6305 7.55064 10.8333 7.94591C10.6305 8.34112 10.4086 8.73639 10.1673 9.12276ZM11.2064 8.73936C11.3753 9.12375 11.5234 9.51551 11.6504 9.91324C11.2289 10.0076 10.785 10.0873 10.3249 10.1492C10.4826 9.92214 10.6402 9.68912 10.7882 9.45016C10.9362 9.21424 11.0745 8.97528 11.2064 8.73936ZM7.94427 11.8866C7.64508 11.6033 7.34589 11.2877 7.04995 10.9427C7.33949 10.9545 7.63544 10.9633 7.93463 10.9633C8.23705 10.9633 8.53623 10.9574 8.82902 10.9427C8.55287 11.2717 8.25752 11.5868 7.94427 11.8866ZM5.55078 10.1492C5.09398 10.0873 4.65322 10.0106 4.23182 9.9162C4.3508 9.53571 4.49885 9.1434 4.6661 8.7511C4.79803 8.98709 4.93637 9.22308 5.08751 9.459C5.23872 9.69499 5.39317 9.92504 5.55078 10.1492ZM7.92822 4.01115C8.22741 4.2943 8.5266 4.60991 8.82254 4.95501C8.533 4.94321 8.23705 4.93437 7.93786 4.93437C7.63544 4.93437 7.33626 4.94026 7.04354 4.95501C7.31967 4.626 7.61499 4.31092 7.92822 4.01115ZM5.54754 5.74845C5.38993 5.97557 5.23232 6.20858 5.08434 6.44747C4.93637 6.68346 4.79803 6.91945 4.6661 7.15537C4.49721 6.77098 4.34906 6.37921 4.22218 5.98146C4.64359 5.89003 5.08751 5.81039 5.54754 5.74845ZM2.63611 9.44132C1.49729 8.99593 0.760576 8.41195 0.760576 7.94881C0.760576 7.48574 1.49729 6.8988 2.63611 6.45637C2.91278 6.34721 3.21521 6.24988 3.52727 6.15844C3.71064 6.73655 3.95191 7.33826 4.2511 7.95475C3.95515 8.56827 3.71704 9.16701 3.53691 9.74221C3.21844 9.65073 2.91602 9.55048 2.63611 9.44132ZM4.36692 13.6563C3.9294 13.4262 3.73955 12.5502 3.8876 11.4234C3.92299 11.1462 3.98083 10.8542 4.05162 10.5562C4.68222 10.6978 5.37065 10.807 6.09448 10.8778C6.52876 11.4234 6.97916 11.9189 7.4328 12.3525C6.38403 13.2463 5.39957 13.7359 4.73041 13.7359C4.58568 13.733 4.46346 13.7064 4.36692 13.6563ZM11.9978 11.4087C12.149 12.5354 11.9624 13.4115 11.5281 13.6445C11.4316 13.6976 11.3062 13.7212 11.1581 13.7212C10.4922 13.7212 9.50458 13.2345 8.45581 12.3467C8.90621 11.9131 9.3566 11.4205 9.78448 10.8748C10.5115 10.804 11.2 10.6949 11.8305 10.5504C11.9045 10.8483 11.9624 11.1344 11.9978 11.4087ZM13.2364 9.44132C12.9597 9.55048 12.6573 9.64783 12.3452 9.73924C12.1619 9.16114 11.9206 8.55943 11.6214 7.94294C11.9174 7.32943 12.1555 6.73068 12.3356 6.15549C12.6541 6.24693 12.9565 6.34721 13.2396 6.45637C14.3784 6.9017 15.1152 7.48574 15.1152 7.94881C15.1119 8.41195 14.3752 8.99889 13.2364 9.44132Z" fill="#12141D"/>
<path d="M7.93477 9.29681C8.7468 9.29681 9.40502 8.69332 9.40502 7.94881C9.40502 7.20437 8.7468 6.60088 7.93477 6.60088C7.12282 6.60088 6.4646 7.20437 6.4646 7.94881C6.4646 8.69332 7.12282 9.29681 7.93477 9.29681Z" fill="#12141D"/>
</svg>
