<svg width="11" height="10" viewBox="0 0 11 10" fill="none" xmlns="http://www.w3.org/2000/svg">
<path d="M8.75329 4.21408C8.72513 3.86401 8.65313 3.52925 8.5439 3.2174C8.1039 1.96102 7.05996 1.07736 5.84182 1.07736C5.2735 1.07736 4.74316 1.26974 4.29441 1.60247C3.60097 2.11669 3.1023 2.96643 2.95926 3.95994H2.62572C1.47116 3.96007 0.535156 5.07053 0.535156 6.44044C0.535156 7.81035 1.47116 8.92093 2.62572 8.92093H7.83137C8.98582 8.92093 9.92182 7.81035 9.92182 6.44044C9.92182 5.46325 9.44534 4.61845 8.75329 4.21408Z" fill="#EBEBEB"/>
<path d="M4.95542 2.6938C5.06537 2.63965 5.07367 2.51952 5.07367 2.48358C5.07367 2.44813 5.06537 2.32751 4.95542 2.27335C4.90023 2.24628 4.85708 2.19507 4.83425 2.12959C4.81143 2.06411 4.81143 1.99174 4.83425 1.92626L4.98031 1.50828C5.02761 1.37289 5.15873 1.30839 5.27325 1.36452C5.38321 1.41867 5.4608 1.34039 5.48197 1.31529C5.50313 1.29018 5.5691 1.19762 5.52346 1.06765C5.50064 1.00217 5.50064 0.929794 5.52346 0.864314C5.54628 0.798835 5.58943 0.747633 5.64462 0.720555L5.9969 0.547256C6.111 0.49113 6.24212 0.555625 6.28984 0.691015C6.33548 0.820989 6.43673 0.831328 6.46702 0.831328C6.49689 0.831328 6.59855 0.821482 6.64419 0.691015C6.66702 0.625536 6.71017 0.574333 6.76535 0.547256C6.82054 0.520178 6.88154 0.520178 6.93672 0.547256L7.289 0.720555C7.34419 0.747633 7.38734 0.798835 7.41016 0.864314C7.43298 0.929794 7.43298 1.00217 7.41016 1.06765C7.36452 1.19811 7.43049 1.29018 7.45165 1.31529C7.47282 1.34039 7.55082 1.41867 7.66037 1.36452C7.71555 1.33744 7.77655 1.33744 7.83173 1.36452C7.88692 1.3916 7.93007 1.4428 7.95289 1.50828L8.09895 1.92626C8.12177 1.99174 8.12177 2.06411 8.09895 2.12959C8.07613 2.19507 8.03298 2.24628 7.97779 2.27335C7.86825 2.32751 7.85953 2.44764 7.85953 2.48358C7.85953 2.51952 7.86825 2.63965 7.97779 2.6938C8.0919 2.74993 8.14625 2.90599 8.09895 3.04138L7.95289 3.45937C7.93007 3.52485 7.88692 3.57605 7.83173 3.60313C7.77655 3.63021 7.71555 3.63021 7.66037 3.60313C7.55082 3.54947 7.47282 3.62725 7.45165 3.65236C7.43049 3.67747 7.36452 3.77003 7.41016 3.9C7.45746 4.03539 7.40311 4.19146 7.289 4.24759L6.93672 4.42088C6.90892 4.43467 6.87988 4.44107 6.85083 4.44107C6.82179 4.44107 6.79274 4.43418 6.76494 4.42088C6.70975 4.39381 6.6666 4.3426 6.64378 4.27713C6.59814 4.14666 6.49689 4.13681 6.4666 4.13681C6.43673 4.13681 6.33507 4.14666 6.28943 4.27713C6.24212 4.41252 6.11059 4.47701 5.99648 4.42088L5.6442 4.24759C5.5301 4.19146 5.47574 4.03539 5.52304 3.9C5.56869 3.76954 5.50271 3.67747 5.48155 3.65236C5.46039 3.62725 5.3828 3.54897 5.27284 3.60313C5.15873 3.65876 5.02761 3.59427 4.98031 3.45888L4.83425 3.04089C4.78695 2.9055 4.84131 2.74993 4.95542 2.6938ZM6.46702 3.21764C6.80809 3.21764 7.08568 2.88827 7.08568 2.48358C7.08568 2.07888 6.80809 1.74952 6.46702 1.74952C6.12594 1.74952 5.84835 2.07888 5.84835 2.48358C5.84835 2.88827 6.12594 3.21764 6.46702 3.21764Z" fill="#F9F9F9"/>
<path d="M4.90922 7.31524H4.17674C4.11786 7.31524 4.07007 7.25866 4.07007 7.18867V5.47046C4.07007 5.40048 4.11786 5.3439 4.17674 5.3439H4.90922C4.9681 5.3439 5.01588 5.40048 5.01588 5.47046C5.01588 5.54045 4.9681 5.59703 4.90922 5.59703H4.2834V7.06211H4.90922C4.9681 7.06211 5.01588 7.11868 5.01588 7.18867C5.01588 7.25866 4.9682 7.31524 4.90922 7.31524Z" fill="#12141D"/>
<path d="M4.68713 6.45613H4.17674C4.11786 6.45613 4.07007 6.39955 4.07007 6.32957C4.07007 6.25958 4.11786 6.203 4.17674 6.203H4.68713C4.74601 6.203 4.7938 6.25958 4.7938 6.32957C4.7938 6.39955 4.74612 6.45613 4.68713 6.45613Z" fill="#12141D"/>
<path d="M3.16944 6.45613H2.67088C2.612 6.45613 2.56421 6.39956 2.56421 6.32957V5.47046C2.56421 5.40048 2.612 5.3439 2.67088 5.3439H3.16944C3.38096 5.3439 3.55301 5.54805 3.55301 5.79902V6.00114C3.55301 6.25186 3.38096 6.45613 3.16944 6.45613ZM2.77754 6.20301H3.16944C3.2633 6.20301 3.33968 6.11239 3.33968 6.00101V5.79889C3.33968 5.68752 3.2633 5.5969 3.16944 5.5969H2.77754V6.20301Z" fill="#12141D"/>
<path d="M3.44634 7.31523C3.38746 7.31523 3.33968 7.25866 3.33968 7.18867V6.65812C3.33968 6.54675 3.2633 6.45613 3.16944 6.45613H2.77754V7.18867C2.77754 7.25866 2.72976 7.31523 2.67088 7.31523C2.612 7.31523 2.56421 7.25866 2.56421 7.18867V6.32957C2.56421 6.25958 2.612 6.203 2.67088 6.203H3.16944C3.38096 6.203 3.55301 6.40715 3.55301 6.65812V7.18867C3.55301 7.25866 3.50522 7.31523 3.44634 7.31523Z" fill="#12141D"/>
<path d="M7.78603 5.59703H6.87254C6.81355 5.59703 6.76587 5.54045 6.76587 5.47046C6.76587 5.40048 6.81355 5.3439 6.87254 5.3439H7.78603C7.84502 5.3439 7.8927 5.40048 7.8927 5.47046C7.8927 5.54045 7.84491 5.59703 7.78603 5.59703Z" fill="#12141D"/>
<path d="M7.32908 7.31524C7.27009 7.31524 7.22241 7.25866 7.22241 7.18867V5.47046C7.22241 5.40048 7.27009 5.3439 7.32908 5.3439C7.38807 5.3439 7.43575 5.40048 7.43575 5.47046V7.18867C7.43575 7.25866 7.38807 7.31524 7.32908 7.31524Z" fill="#12141D"/>
<path d="M5.94468 7.31523H5.81039C5.59023 7.31523 5.41113 7.10868 5.41113 6.85479C5.41113 6.7848 5.45881 6.72823 5.5178 6.72823C5.57679 6.72823 5.62447 6.7848 5.62447 6.85479C5.62447 6.96908 5.70788 7.0621 5.81039 7.0621H5.94468C6.05572 7.0621 6.14607 6.96123 6.14607 6.8372V6.68115C6.14607 6.55712 6.05572 6.45625 5.94468 6.45625H5.82596C5.59716 6.45625 5.41113 6.24185 5.41113 5.97822V5.82217C5.41113 5.55854 5.59716 5.34415 5.82596 5.34415H5.96025C6.18031 5.34415 6.3594 5.5507 6.3594 5.80445C6.3594 5.87444 6.31172 5.93102 6.25273 5.93102C6.19375 5.93102 6.14607 5.87444 6.14607 5.80445C6.14607 5.69029 6.06276 5.59727 5.96025 5.59727H5.82596C5.71492 5.59727 5.62447 5.69814 5.62447 5.82217V5.97822C5.62447 6.10225 5.71492 6.20312 5.82596 6.20312H5.94468C6.17337 6.20312 6.3594 6.41752 6.3594 6.68115V6.8372C6.3594 7.10083 6.17327 7.31523 5.94468 7.31523Z" fill="#12141D"/>
<path d="M4.45393 9.99999C4.39505 9.99999 4.34726 9.94342 4.34726 9.87343V8.52567C4.34726 8.39113 4.25499 8.28166 4.14171 8.28166H3.86737C3.75398 8.28166 3.66182 8.39113 3.66182 8.52567V9.87331C3.66182 9.94329 3.61403 9.99987 3.55515 9.99987C3.49627 9.99987 3.44849 9.94329 3.44849 9.87331V8.52567C3.44849 8.25154 3.63643 8.02853 3.86737 8.02853H4.14171C4.37275 8.02853 4.56059 8.25154 4.56059 8.52567V9.87331C4.56059 9.94329 4.51281 9.99999 4.45393 9.99999Z" fill="#12141D"/>
<path d="M4.45403 9.14088H3.55515C3.49627 9.14088 3.44849 9.08431 3.44849 9.01432C3.44849 8.94433 3.49627 8.88776 3.55515 8.88776H4.45403C4.51291 8.88776 4.5607 8.94433 4.5607 9.01432C4.5607 9.08431 4.51291 9.14088 4.45403 9.14088Z" fill="#12141D"/>
<path d="M6.72092 9.99999C6.66194 9.99999 6.61426 9.94342 6.61426 9.87343V8.15522C6.61426 8.08523 6.66194 8.02866 6.72092 8.02866C6.77991 8.02866 6.82759 8.08523 6.82759 8.15522V9.87343C6.82759 9.94329 6.77991 9.99999 6.72092 9.99999Z" fill="#12141D"/>
<path d="M5.75081 9.24555H5.22068C5.1618 9.24555 5.11401 9.18898 5.11401 9.11899V8.15522C5.11401 8.08523 5.1618 8.02866 5.22068 8.02866H5.75081C5.96521 8.02866 6.13961 8.23571 6.13961 8.4901V8.78423C6.13951 9.0385 5.96511 9.24555 5.75081 9.24555ZM5.32724 8.99243H5.75071C5.84745 8.99243 5.92617 8.89902 5.92617 8.78411V8.48998C5.92617 8.37518 5.84756 8.28165 5.75071 8.28165H5.32724V8.99243Z" fill="#12141D"/>
<path d="M5.22044 9.99999C5.16156 9.99999 5.11377 9.94342 5.11377 9.87343V9.11899C5.11377 9.049 5.16156 8.99243 5.22044 8.99243C5.27932 8.99243 5.3271 9.049 5.3271 9.11899V9.87343C5.3271 9.94329 5.27942 9.99999 5.22044 9.99999Z" fill="#12141D"/>
<path d="M7.83128 9.04735C7.77229 9.04735 7.72461 8.99078 7.72461 8.92079C7.72461 8.8508 7.77229 8.79423 7.83128 8.79423C8.92514 8.79423 9.81517 7.73844 9.81517 6.44055C9.81517 5.53689 9.39032 4.72728 8.70626 4.32772C8.67298 4.30835 8.65069 4.26988 8.64717 4.22622C8.6204 3.89513 8.55256 3.57214 8.44536 3.26599C8.42274 3.20144 8.44856 3.1274 8.50296 3.10057C8.55768 3.07374 8.61986 3.10437 8.64248 3.16891C8.75021 3.47684 8.82104 3.80059 8.85336 4.13256C9.57976 4.58527 10.0285 5.46311 10.0285 6.44042C10.0285 7.87792 9.0429 9.04735 7.83128 9.04735Z" fill="#12141D"/>
<path d="M2.62569 9.04737C1.41417 9.04737 0.428467 7.87794 0.428467 6.44057C0.428467 5.00308 1.41417 3.83352 2.62569 3.83352H2.8706C3.03476 2.86848 3.52916 2.02077 4.23785 1.49528C4.28777 1.45832 4.35359 1.47642 4.38484 1.53553C4.41599 1.59476 4.40084 1.67285 4.35092 1.70993C3.66825 2.21618 3.19935 3.04415 3.06441 3.98134C3.05567 4.04209 3.01119 4.08664 2.95924 4.08664H2.62569C1.53172 4.08664 0.6418 5.14255 0.6418 6.44044C0.6418 7.73834 1.53172 8.79437 2.62569 8.79437C2.68457 8.79437 2.73236 8.85095 2.73236 8.92094C2.73236 8.99093 2.68457 9.04737 2.62569 9.04737Z" fill="#12141D"/>
<path d="M6.85094 4.5676C6.80738 4.5676 6.76464 4.55727 6.72439 4.53757C6.64265 4.49769 6.57916 4.42188 6.54555 4.32538C6.52771 4.27368 6.49286 4.26285 6.46713 4.26285C6.44099 4.26285 6.40655 4.27368 6.38871 4.32538C6.319 4.52477 6.12523 4.62028 5.95676 4.53757L5.60407 4.36427C5.43561 4.28156 5.35552 4.05115 5.42523 3.85176C5.44432 3.7976 5.42191 3.7597 5.40698 3.74197C5.3883 3.71982 5.35718 3.69865 5.31403 3.71982C5.14557 3.80204 4.9518 3.70702 4.88167 3.50762L4.73561 3.08964C4.66591 2.88975 4.74599 2.65984 4.91445 2.57713C4.95802 2.55596 4.96715 2.5146 4.96715 2.48408C4.96715 2.45306 4.95802 2.4122 4.91487 2.39103C4.83312 2.35115 4.76964 2.27533 4.73603 2.17883C4.702 2.08184 4.702 1.9755 4.73603 1.87851L4.88209 1.46053C4.95221 1.26064 5.14598 1.16562 5.31445 1.24834C5.35801 1.26951 5.38872 1.24834 5.40698 1.22667C5.42565 1.20452 5.44349 1.16809 5.42565 1.11639C5.39204 1.0194 5.39204 0.91306 5.42565 0.816072C5.45967 0.719084 5.52316 0.643758 5.60448 0.603879L5.95676 0.43058C6.12523 0.347869 6.319 0.44338 6.38912 0.642773C6.40697 0.693975 6.44182 0.704806 6.46755 0.704806C6.49369 0.704806 6.52813 0.693975 6.54597 0.642773C6.57999 0.545784 6.64348 0.470458 6.72522 0.430088C6.80696 0.389717 6.89659 0.390209 6.97833 0.430088L7.33061 0.603387C7.41235 0.643758 7.47583 0.719084 7.50986 0.81558C7.54388 0.912568 7.54388 1.0194 7.50986 1.1159C7.49202 1.1671 7.50986 1.20403 7.52812 1.22569C7.54679 1.24784 7.57749 1.26901 7.62065 1.24784C7.70239 1.20796 7.79243 1.20796 7.87376 1.24784C7.9555 1.28821 8.01898 1.36354 8.05301 1.46053L8.19865 1.87851C8.23267 1.9755 8.23267 2.08184 8.19865 2.17883C8.16462 2.27582 8.10114 2.35115 8.0194 2.39152C7.97624 2.41269 7.96712 2.45404 7.96712 2.48457C7.96712 2.51509 7.97624 2.55645 8.01981 2.57762C8.10155 2.6175 8.16504 2.69332 8.19865 2.7903C8.23267 2.88729 8.23267 2.99363 8.19865 3.09062L8.05259 3.50861C8.01898 3.6056 7.9555 3.68092 7.87376 3.7208C7.79201 3.76068 7.70197 3.76068 7.62065 3.7208C7.57708 3.69914 7.54637 3.7208 7.52812 3.74246C7.50986 3.76413 7.4916 3.80105 7.50986 3.85225C7.57957 4.05214 7.49949 4.28205 7.33102 4.36477L6.97874 4.53806C6.93725 4.55776 6.89451 4.5676 6.85094 4.5676ZM6.46713 4.0098C6.5634 4.0098 6.68663 4.0674 6.74265 4.22839C6.75468 4.26285 6.77709 4.28944 6.80613 4.30372C6.83518 4.31799 6.86713 4.31799 6.89617 4.30372L7.24845 4.13042C7.3082 4.10088 7.33683 4.01915 7.31194 3.94826C7.25551 3.78677 7.30862 3.64301 7.37667 3.56227C7.44471 3.48153 7.56587 3.41901 7.70156 3.48547C7.73102 3.49975 7.76214 3.49975 7.7916 3.48547C7.82064 3.47119 7.84305 3.44461 7.85508 3.41014L8.00114 2.99216C8.01317 2.9577 8.01317 2.92028 8.00114 2.88582C7.98911 2.85135 7.9667 2.82477 7.93766 2.81049C7.80197 2.74353 7.75342 2.5978 7.75342 2.48358C7.75342 2.36936 7.80156 2.22314 7.93766 2.15668C7.9667 2.1424 7.98911 2.11582 8.00114 2.08135C8.01317 2.04689 8.01317 2.00898 8.00114 1.97452L7.85508 1.55653C7.84305 1.52207 7.82064 1.49548 7.7916 1.48121C7.76255 1.46693 7.7306 1.46693 7.70156 1.48121C7.56629 1.54816 7.44471 1.48564 7.37625 1.4044C7.3082 1.32415 7.25551 1.1799 7.31194 1.01891C7.32397 0.984448 7.32397 0.946539 7.31194 0.912076C7.2999 0.877613 7.2775 0.851027 7.24845 0.83675L6.89617 0.663451C6.86671 0.649173 6.83559 0.649173 6.80613 0.663451C6.77709 0.677728 6.75427 0.704314 6.74265 0.738777C6.68663 0.899768 6.5634 0.95737 6.46713 0.95737C6.37087 0.95737 6.24763 0.90026 6.19162 0.739269C6.16672 0.668374 6.09784 0.634403 6.03809 0.663943L5.68581 0.83675C5.65677 0.851027 5.63436 0.877613 5.62233 0.912076C5.61029 0.946539 5.61029 0.984448 5.62233 1.01891C5.67876 1.18039 5.62565 1.32415 5.55718 1.4049C5.48955 1.48564 5.36839 1.54816 5.23229 1.48121C5.17254 1.45167 5.10366 1.48564 5.07876 1.55653L4.93271 1.97452C4.92067 2.00898 4.92067 2.04689 4.93271 2.08086C4.94474 2.11532 4.96715 2.1424 4.99619 2.15619C5.13229 2.22314 5.18042 2.36887 5.18042 2.48358C5.18042 2.5978 5.13188 2.74353 4.99619 2.81049C4.93644 2.84003 4.90781 2.92176 4.93271 2.99265L5.07876 3.41064C5.10366 3.48153 5.17295 3.5155 5.23229 3.48596C5.36797 3.4195 5.48913 3.48202 5.55718 3.56276C5.62523 3.64301 5.67834 3.78677 5.62191 3.94826C5.59702 4.01915 5.62565 4.10088 5.6854 4.13042L6.03768 4.30372C6.09743 4.33326 6.1663 4.29929 6.1912 4.22839C6.24763 4.0674 6.37045 4.0098 6.46713 4.0098ZM6.46713 3.34417C6.06714 3.34417 5.74183 2.95819 5.74183 2.48358C5.74183 2.00898 6.06714 1.623 6.46713 1.623C6.86713 1.623 7.19244 2.00898 7.19244 2.48358C7.19244 2.95819 6.86713 3.34417 6.46713 3.34417ZM6.46713 1.87605C6.18456 1.87605 5.9551 2.1488 5.9551 2.48358C5.9551 2.81837 6.18498 3.09112 6.46713 3.09112C6.74929 3.09112 6.97916 2.81837 6.97916 2.48358C6.97916 2.1488 6.74929 1.87605 6.46713 1.87605Z" fill="#12141D"/>
</svg>
