<svg width="61" height="19" viewBox="0 0 61 19" fill="none" xmlns="http://www.w3.org/2000/svg">
<path d="M10.5744 2.3632C11.0011 2.3632 11.2144 2.5552 11.2144 2.9392C11.2144 3.272 11.0309 3.60907 10.664 3.9504C10.3056 4.2832 9.8704 4.4496 9.3584 4.4496C9.16213 4.4496 9.01707 4.44107 8.9232 4.424C8.70987 4.81653 8.3856 5.47787 7.9504 6.408C7.52373 7.33813 7.19947 8.0208 6.9776 8.456C8.01867 8.01227 8.73973 7.19733 9.1408 6.0112C9.15787 5.96 9.2048 5.93013 9.2816 5.9216C9.3584 5.90453 9.43093 5.91307 9.4992 5.9472C9.56747 5.98133 9.59307 6.02827 9.576 6.088C9.36267 6.728 9.0128 7.29547 8.5264 7.7904C8.04853 8.28533 7.46827 8.63947 6.7856 8.8528C5.94933 10.4144 5.12587 11.5323 4.3152 12.2064C4.7504 12.5136 5.08747 12.744 5.3264 12.8976C5.57387 13.0427 5.89813 13.192 6.2992 13.3456C6.70027 13.4992 7.08 13.576 7.4384 13.576C8.21493 13.576 8.872 13.1579 9.4096 12.3216C9.8448 11.656 10.0581 10.9861 10.0496 10.312C9.98987 9.7232 9.768 9.4032 9.384 9.352C8.88907 9.352 8.47947 9.608 8.1552 10.12C7.83093 10.6235 7.6688 11.1013 7.6688 11.5536C7.6688 11.9973 7.74987 12.2619 7.912 12.3472C7.86933 12.4752 7.79253 12.5392 7.6816 12.5392C7.3232 12.5392 7.144 12.2576 7.144 11.6944C7.144 11.1227 7.2976 10.5893 7.6048 10.0944C8.03147 9.4032 8.5904 9.0576 9.2816 9.0576C10.024 9.0576 10.3952 9.5184 10.3952 10.44C10.3952 10.9947 10.216 11.6048 9.8576 12.2704C9.38827 13.1579 8.7824 13.7509 8.04 14.0496C7.74987 14.1691 7.4384 14.2288 7.1056 14.2288C6.7728 14.2288 6.44427 14.1861 6.12 14.1008C5.80427 14.0155 5.48853 13.8789 5.1728 13.6912C4.8656 13.5035 4.62667 13.3413 4.456 13.2048C4.28533 13.0768 4.04213 12.8805 3.7264 12.616C3.19733 12.9317 2.64267 13.0896 2.0624 13.0896C1.13227 13.0896 0.5392 12.8549 0.2832 12.3856C0.2064 12.2491 0.168 12.0997 0.168 11.9376C0.168 11.7669 0.253333 11.592 0.424 11.4128C0.671467 11.1227 1.0128 10.9776 1.448 10.9776C1.8832 10.9776 2.29707 11.0672 2.6896 11.2464C3.08213 11.4171 3.52587 11.6688 4.0208 12.0016C4.75467 11.3957 5.49707 10.3888 6.248 8.9808C5.9664 9.02347 5.62507 9.0448 5.224 9.0448C4.82293 9.0448 4.41333 8.97227 3.9952 8.8272C3.57707 8.6736 3.24427 8.47307 2.9968 8.2256C2.74933 7.9696 2.5488 7.67947 2.3952 7.3552C2.25013 7.03093 2.1776 6.6896 2.1776 6.3312C2.1776 5.9728 2.216 5.6144 2.2928 5.256C2.3696 4.8976 2.50613 4.55627 2.7024 4.232C2.9072 3.90773 3.1376 3.62187 3.3936 3.3744C3.65813 3.1184 3.9696 2.91787 4.328 2.7728C4.69493 2.6192 5.08747 2.5424 5.5056 2.5424C5.93227 2.5424 6.3376 2.6192 6.7216 2.7728C7.11413 2.9264 7.5024 3.1184 7.8864 3.3488C8.27893 3.57067 8.60747 3.72427 8.872 3.8096C9.46933 2.84533 10.0368 2.3632 10.5744 2.3632ZM5.0832 3.0032C4.30667 3.0032 3.65387 3.37013 3.1248 4.104C2.67253 4.72693 2.4464 5.40107 2.4464 6.1264C2.4464 7.19307 2.87733 7.94827 3.7392 8.392C4.20853 8.63093 4.77173 8.7504 5.4288 8.7504C5.7872 8.7504 6.12 8.712 6.4272 8.6352C6.64907 8.21707 6.99467 7.5088 7.464 6.5104C7.94187 5.512 8.30453 4.7952 8.552 4.36C8.1936 4.27467 7.80533 4.1168 7.3872 3.8864C6.9776 3.64747 6.5808 3.44267 6.1968 3.272C5.82133 3.0928 5.45013 3.0032 5.0832 3.0032ZM0.5008 11.976C0.5008 12.1552 0.624533 12.3344 0.872 12.5136C1.11947 12.6928 1.4992 12.7824 2.0112 12.7824C2.53173 12.7824 3.01813 12.6501 3.4704 12.3856C3.0608 12.0443 2.6896 11.7883 2.3568 11.6176C2.03253 11.4384 1.6784 11.3488 1.2944 11.3488C0.918933 11.3488 0.671467 11.4811 0.552 11.7456C0.517867 11.8224 0.5008 11.8992 0.5008 11.976ZM10.5488 2.7344C10.1477 2.7344 9.70827 3.12267 9.2304 3.8992C9.384 3.9248 9.54187 3.9376 9.704 3.9376C10.0965 3.9376 10.4123 3.76267 10.6512 3.4128C10.7707 3.25067 10.8304 3.12267 10.8304 3.0288C10.8304 2.83253 10.7365 2.7344 10.5488 2.7344ZM12.4975 11.3104C12.4975 12.2064 12.7365 12.6544 13.2143 12.6544C13.5386 12.6544 13.8415 12.4539 14.1231 12.0528C14.6607 11.3019 14.9893 10.312 15.1087 9.0832C14.8101 8.9552 14.601 8.74613 14.4815 8.456C14.4047 8.2768 14.3663 8.12747 14.3663 8.008C14.3663 7.88 14.3834 7.76907 14.4175 7.6752C14.4943 7.4448 14.6351 7.3296 14.8399 7.3296C15.0447 7.3296 15.1983 7.46187 15.3007 7.7264C15.4117 7.9824 15.4671 8.31093 15.4671 8.712C15.4671 8.7376 15.4671 8.76747 15.4671 8.8016C15.5695 8.83573 15.7189 8.8528 15.9151 8.8528C16.1199 8.8528 16.2991 8.77173 16.4527 8.6096C16.6063 8.44747 16.6831 8.29813 16.6831 8.1616C16.6831 8.12747 16.7045 8.10613 16.7471 8.0976C16.7898 8.08053 16.8282 8.08053 16.8623 8.0976C16.905 8.11467 16.9263 8.14027 16.9263 8.1744C16.9263 8.42187 16.8197 8.65653 16.6063 8.8784C16.4015 9.10027 16.1242 9.2112 15.7743 9.2112C15.689 9.2112 15.5781 9.20267 15.4415 9.1856C15.3903 9.76587 15.2666 10.3419 15.0703 10.9136C14.8826 11.4768 14.6181 11.9675 14.2767 12.3856C13.9354 12.7952 13.5685 13 13.1759 13C12.4335 13 11.977 12.6032 11.8063 11.8096C11.7637 11.5792 11.7423 11.3445 11.7423 11.1056C11.7423 10.568 11.8661 9.992 12.1135 9.3776C12.4378 8.57547 12.8389 8.07627 13.3167 7.88C13.5642 7.79467 13.7349 7.78187 13.8287 7.8416C13.9226 7.90133 13.9823 7.9696 14.0079 8.0464C13.6154 8.0464 13.2655 8.41333 12.9583 9.1472C12.6511 9.88107 12.4975 10.6021 12.4975 11.3104ZM17.0552 13C16.8162 13 16.6968 12.8165 16.6968 12.4496C16.6968 12.2533 16.9357 10.824 17.4136 8.1616C17.4477 7.9824 17.5245 7.8928 17.644 7.8928C17.7976 7.8928 17.9128 8.00373 17.9896 8.2256C18.0322 8.34507 18.0536 8.47733 18.0536 8.6224C18.0536 8.75893 18.0365 8.90827 18.0024 9.0704L17.7976 10.12H17.8616C18.5954 8.41333 19.2696 7.56 19.884 7.56C20.2253 7.56 20.4514 7.7264 20.5624 8.0592C20.605 8.1872 20.6264 8.33653 20.6264 8.5072C20.6264 8.66933 20.5794 8.84853 20.4856 9.0448C20.3234 9.3776 20.0802 9.544 19.756 9.544C19.6877 9.544 19.6322 9.52693 19.5896 9.4928C19.5554 9.45867 19.5341 9.41173 19.5256 9.352C19.5938 9.352 19.6834 9.22827 19.7944 8.9808C19.9053 8.7248 19.9693 8.49013 19.9864 8.2768C20.0034 8.06347 19.9309 7.93973 19.7688 7.9056C19.4701 7.9056 19.116 8.29387 18.7064 9.0704C18.2968 9.84693 17.9682 10.5893 17.7208 11.2976C17.4733 12.0059 17.3282 12.4667 17.2856 12.68C17.2429 12.8933 17.1661 13 17.0552 13ZM21.7178 13.0128C21.0436 13.0128 20.7066 12.5051 20.7066 11.4896C20.7066 10.9008 20.8602 10.2565 21.1674 9.5568C21.594 8.6096 22.1359 7.99093 22.793 7.7008C23.0234 7.60693 23.2538 7.56 23.4842 7.56C23.7231 7.56 23.9108 7.62827 24.0474 7.7648C24.1839 7.90133 24.2522 8.05493 24.2522 8.2256C24.2522 8.3024 24.2095 8.3408 24.1242 8.3408C24.0474 8.33227 24.009 8.2896 24.009 8.2128C24.009 8.136 23.9663 8.06773 23.881 8.008C23.8042 7.93973 23.689 7.9056 23.5354 7.9056C22.9978 7.9056 22.5114 8.38773 22.0762 9.352C21.6666 10.248 21.4618 11.0971 21.4618 11.8992C21.4618 12.3941 21.5684 12.6416 21.7818 12.6416C22.0036 12.6416 22.2682 12.4581 22.5754 12.0912C22.8911 11.7157 23.1812 11.2805 23.4458 10.7856C24.0175 9.74453 24.3546 9.07467 24.457 8.776C24.5594 8.47733 24.6703 8.328 24.7898 8.328C25.0031 8.328 25.1098 8.5072 25.1098 8.8656C25.1098 8.97653 25.097 9.10453 25.0714 9.2496C24.7898 10.6149 24.6362 11.4043 24.6106 11.6176C24.5935 11.8309 24.585 11.9845 24.585 12.0784C24.585 12.488 24.6831 12.6928 24.8794 12.6928C25.1012 12.6928 25.4127 12.3984 25.8138 11.8096C26.2148 11.2208 26.5604 10.632 26.8506 10.0432L27.2858 9.16H27.6314C27.5802 9.2624 27.5119 9.4032 27.4266 9.5824C27.3498 9.75307 27.1919 10.0645 26.953 10.5168C26.714 10.9605 26.4836 11.3531 26.2618 11.6944C26.0484 12.0357 25.8052 12.3472 25.5322 12.6288C25.2676 12.9019 25.0372 13.0384 24.841 13.0384C24.2095 13.0384 23.8938 12.5776 23.8938 11.656C23.8938 11.3488 23.9279 10.9904 23.9962 10.5808H23.9066C23.0362 12.2021 22.3066 13.0128 21.7178 13.0128ZM28.6352 5.3328C28.8315 5.3328 28.9296 5.46507 28.9296 5.7296C28.9296 5.99413 28.8016 6.20747 28.5456 6.3696C28.4176 6.45493 28.3067 6.4976 28.2128 6.4976C28.0763 6.4976 27.9952 6.45493 27.9696 6.3696L27.9568 6.3312C28.0336 6.3312 28.0891 6.25013 28.1232 6.088C28.1574 5.91733 28.2086 5.75093 28.2768 5.5888C28.3536 5.41813 28.4731 5.3328 28.6352 5.3328ZM27.816 12.6928C28.0379 12.6928 28.3494 12.3984 28.7504 11.8096C29.1515 11.2208 29.4971 10.632 29.7872 10.0432L30.2224 9.16H30.568C30.5168 9.2624 30.4486 9.4032 30.3632 9.5824C30.2864 9.75307 30.1286 10.0645 29.8896 10.5168C29.6507 10.9605 29.4203 11.3531 29.1984 11.6944C28.9851 12.0357 28.7419 12.3472 28.4688 12.6288C28.2043 12.9019 27.9739 13.0384 27.7776 13.0384C27.1462 13.0384 26.8304 12.6288 26.8304 11.8096C26.8304 11.1952 27.0054 10.1968 27.3552 8.8144C27.3894 8.66933 27.415 8.5584 27.432 8.4816C27.4576 8.4048 27.4832 8.30667 27.5088 8.1872C27.5344 8.0592 27.56 7.944 27.5856 7.8416C27.6283 7.6624 27.7051 7.5728 27.816 7.5728C27.9696 7.5728 28.0806 7.68373 28.1488 7.9056C28.183 8.008 28.2 8.13173 28.2 8.2768C28.2 8.42187 28.183 8.57547 28.1488 8.7376C28.1147 8.8912 28.0592 9.1216 27.9824 9.4288C27.9056 9.736 27.8459 9.98773 27.8032 10.184C27.7606 10.3803 27.7136 10.6192 27.6624 10.9008C27.5686 11.3701 27.5216 11.7883 27.5216 12.1552C27.5216 12.5136 27.6198 12.6928 27.816 12.6928ZM30.5871 12.3728C30.4165 12.3728 30.2543 12.4795 30.1007 12.6928C29.9386 12.8976 29.7935 13 29.6655 13C29.5375 13 29.4735 12.9701 29.4735 12.9104C29.4735 12.8848 29.4821 12.8635 29.4991 12.8464C30.6511 11.3957 31.8202 10.0432 33.0063 8.7888C32.7503 8.85707 32.4943 8.8912 32.2383 8.8912C31.4959 8.8912 31.0309 8.6736 30.8431 8.2384C30.8005 8.12747 30.7791 8.008 30.7791 7.88C30.7791 7.74347 30.8389 7.60693 30.9583 7.4704C31.0863 7.32533 31.2271 7.2528 31.3807 7.2528C31.5343 7.2528 31.6453 7.28267 31.7135 7.3424C31.7903 7.3936 31.8415 7.47467 31.8671 7.5856C31.7391 7.5856 31.6581 7.65813 31.6239 7.8032C31.6154 7.84587 31.6111 7.88427 31.6111 7.9184C31.6111 8.08907 31.7306 8.22133 31.9695 8.3152C32.1231 8.37493 32.3493 8.4048 32.6479 8.4048C32.9551 8.4048 33.2538 8.34933 33.5439 8.2384C34.0133 7.78613 34.3162 7.56 34.4527 7.56C34.521 7.56 34.5551 7.5856 34.5551 7.6368C34.5551 7.688 34.4911 7.8032 34.3631 7.9824C34.2351 8.1616 33.9919 8.34933 33.6335 8.5456C33.0021 9.24533 32.0037 10.4059 30.6383 12.0272C30.6725 12.0187 30.7407 12.0144 30.8431 12.0144C30.9541 12.0144 31.1802 12.0955 31.5215 12.2576C31.8714 12.4197 32.1829 12.5008 32.4559 12.5008C32.9509 12.5008 33.2837 12.3003 33.4543 11.8992C33.5055 11.7712 33.5311 11.6517 33.5311 11.5408C33.5311 11.4213 33.5013 11.3232 33.4415 11.2464C33.3818 11.1696 33.3093 11.1312 33.2239 11.1312C33.241 11.0203 33.305 10.9648 33.4159 10.9648C33.7317 10.9648 33.8895 11.2123 33.8895 11.7072C33.8895 12.0656 33.753 12.4197 33.4799 12.7696C33.2069 13.1195 32.8229 13.2944 32.3279 13.2944C32.089 13.2944 31.8757 13.2432 31.6879 13.1408C31.5002 13.0469 31.3594 12.9445 31.2655 12.8336C30.9925 12.5264 30.7663 12.3728 30.5871 12.3728ZM42.8524 0.980801C42.9036 0.980801 42.942 1.00213 42.9676 1.0448C43.0018 1.07893 43.0188 1.11307 43.0188 1.1472V1.1984C42.4642 1.1984 41.9863 1.36053 41.5852 1.6848C41.022 2.1456 40.7404 2.70027 40.7404 3.3488C40.7404 3.6304 40.8002 3.912 40.9196 4.1936C41.1074 4.6544 41.453 5.00853 41.9564 5.256C42.1612 4.49653 42.5836 3.848 43.2236 3.3104C43.8722 2.76427 44.6658 2.4912 45.6044 2.4912C46.3127 2.4912 46.765 2.73013 46.9612 3.208C47.021 3.35307 47.0508 3.5024 47.0508 3.656C47.0508 3.97173 46.9228 4.30453 46.6668 4.6544C46.0354 5.49067 45.0242 5.9088 43.6332 5.9088C43.2066 5.9088 42.8354 5.8704 42.5196 5.7936C42.494 5.95573 42.4812 6.1264 42.4812 6.3056C42.4812 6.4848 42.5111 6.664 42.5708 6.8432C43.0914 6.65547 43.6418 6.5616 44.222 6.5616C44.8108 6.5616 45.1692 6.71093 45.2972 7.0096C45.3228 7.07787 45.3356 7.14187 45.3356 7.2016C45.3356 7.3808 45.1991 7.56 44.926 7.7392C44.653 7.9184 44.2306 8.008 43.6588 8.008C43.0871 8.008 42.6263 7.81173 42.2764 7.4192C41.517 7.9056 40.958 8.6224 40.5997 9.5696C40.3607 10.2011 40.2412 10.8155 40.2412 11.4128C40.2412 11.7115 40.2711 12.0016 40.3309 12.2832C40.5101 13.1536 40.9282 13.7381 41.5852 14.0368C41.5852 14.0112 41.5852 13.9856 41.5852 13.96C41.5852 13.1664 41.7132 12.3899 41.9692 11.6304C42.2338 10.8709 42.6477 10.2181 43.2109 9.672C43.774 9.11733 44.4226 8.84 45.1564 8.84C45.8903 8.84 46.3639 9.1728 46.5773 9.8384C46.6541 10.0773 46.6925 10.3248 46.6925 10.5808C46.6925 11.0501 46.5644 11.5621 46.3084 12.1168C45.8647 13.064 45.1948 13.7509 44.2989 14.1776C43.7527 14.4336 43.1639 14.5616 42.5324 14.5616C42.43 14.5616 42.2935 14.5531 42.1228 14.536C42.1484 15.2357 42.3063 15.8032 42.5964 16.2384C42.8866 16.6736 43.3047 16.8912 43.8509 16.8912C43.8167 17.0363 43.71 17.1088 43.5308 17.1088C42.9591 17.1088 42.5068 16.8613 42.174 16.3664C41.8498 15.8715 41.662 15.2315 41.6108 14.4464C40.9964 14.2928 40.5015 13.9899 40.126 13.5376C39.6652 12.9915 39.4348 12.296 39.4348 11.4512C39.4348 11.016 39.4988 10.5339 39.6268 10.0048C39.7548 9.4672 40.0364 8.92107 40.4717 8.3664C40.9068 7.8032 41.4316 7.368 42.046 7.0608C41.9095 6.77067 41.8412 6.4976 41.8412 6.2416C41.8412 5.97707 41.854 5.7552 41.8796 5.576C41.4956 5.3968 41.1842 5.15787 40.9452 4.8592C40.621 4.44107 40.4589 3.976 40.4589 3.464C40.4589 2.89227 40.621 2.376 40.9452 1.9152C41.15 1.64213 41.4188 1.42027 41.7516 1.2496C42.0844 1.0704 42.4514 0.980801 42.8524 0.980801ZM45.2588 9.1472C44.6871 9.1472 44.1538 9.416 43.6588 9.9536C43.1724 10.4827 42.797 11.1312 42.5324 11.8992C42.2764 12.6672 42.1399 13.4309 42.1228 14.1904C42.2423 14.216 42.3703 14.2288 42.5069 14.2288C43.7527 14.2288 44.7468 13.7467 45.4892 12.7824C46.0354 12.0741 46.3084 11.3531 46.3084 10.6192C46.3084 9.88533 46.0951 9.42453 45.6684 9.2368C45.549 9.17707 45.4124 9.1472 45.2588 9.1472ZM43.6205 5.5888C44.6103 5.5888 45.3868 5.2816 45.95 4.6672C46.2828 4.3088 46.4492 3.95893 46.4492 3.6176C46.4492 3.5408 46.445 3.46827 46.4365 3.4C46.334 2.99893 46.0268 2.79413 45.5148 2.7856C44.8151 2.7856 44.1922 3.05867 43.646 3.6048C43.1084 4.15093 42.7543 4.77813 42.5836 5.4864C42.8994 5.55467 43.245 5.5888 43.6205 5.5888ZM44.222 6.8432C43.693 6.8432 43.1938 6.94987 42.7244 7.1632C42.9548 7.5216 43.3389 7.7008 43.8765 7.7008C44.4226 7.7008 44.7724 7.58133 44.926 7.3424C44.9602 7.28267 44.9772 7.23147 44.9772 7.1888C44.9772 7.07787 44.9004 6.99253 44.7469 6.9328C44.6018 6.87307 44.4268 6.8432 44.222 6.8432ZM48.7989 7.5728C48.9525 7.5728 49.0634 7.68373 49.1317 7.9056C49.1658 8.008 49.1829 8.13173 49.1829 8.2768C49.1829 8.42187 49.1402 8.66933 49.0549 9.0192C48.9696 9.36053 48.8416 9.9024 48.6709 10.6448C48.5088 11.3872 48.368 12.0187 48.2485 12.5392C48.129 13.0597 47.9882 13.6315 47.8261 14.2544C47.664 14.8859 47.5061 15.4107 47.3525 15.8288C47.1989 16.2469 47.0282 16.6437 46.8405 17.0192C46.465 17.7531 46.0213 18.12 45.5093 18.12C45.0656 18.12 44.8437 17.8981 44.8437 17.4544C44.8437 17.2411 44.8992 16.968 45.0101 16.6352C45.3002 15.7648 45.8208 14.8475 46.5717 13.8832C46.9728 13.3541 47.3184 13 47.6085 12.8208C47.7536 12.1637 48.0736 10.504 48.5685 7.8416C48.5941 7.6624 48.6709 7.5728 48.7989 7.5728ZM45.2021 17.4032C45.2021 17.6507 45.2917 17.7744 45.4709 17.7744C46.1536 17.7744 46.8405 16.2384 47.5317 13.1664C47.0538 13.5845 46.5461 14.2928 46.0085 15.2912C45.4709 16.2896 45.2021 16.9936 45.2021 17.4032ZM49.4261 5.3328C49.6224 5.3328 49.7205 5.46507 49.7205 5.7296C49.7205 5.99413 49.5925 6.20747 49.3365 6.3696C49.2085 6.45493 49.0976 6.4976 49.0037 6.4976C48.8672 6.4976 48.7861 6.45493 48.7605 6.3696L48.7477 6.3312C48.8245 6.3312 48.88 6.25013 48.9141 6.088C48.9482 5.91733 48.9994 5.75093 49.0677 5.5888C49.1445 5.41813 49.264 5.3328 49.4261 5.3328ZM50.9053 13.0128C50.2311 13.0128 49.8941 12.5051 49.8941 11.4896C49.8941 10.9008 50.0477 10.2565 50.3549 9.5568C50.7815 8.6096 51.3234 7.99093 51.9805 7.7008C52.2109 7.60693 52.4413 7.56 52.6717 7.56C52.9106 7.56 53.0983 7.62827 53.2349 7.7648C53.3714 7.90133 53.4397 8.05493 53.4397 8.2256C53.4397 8.3024 53.397 8.3408 53.3117 8.3408C53.2349 8.33227 53.1965 8.2896 53.1965 8.2128C53.1965 8.136 53.1538 8.06773 53.0685 8.008C52.9917 7.93973 52.8765 7.9056 52.7229 7.9056C52.1853 7.9056 51.6989 8.38773 51.2637 9.352C50.8541 10.248 50.6493 11.0971 50.6493 11.8992C50.6493 12.3941 50.7559 12.6416 50.9693 12.6416C51.1911 12.6416 51.4557 12.4581 51.7629 12.0912C52.0786 11.7157 52.3687 11.2805 52.6333 10.7856C53.205 9.74453 53.5421 9.07467 53.6445 8.776C53.7469 8.47733 53.8578 8.328 53.9773 8.328C54.1906 8.328 54.2973 8.5072 54.2973 8.8656C54.2973 8.97653 54.2845 9.10453 54.2589 9.2496C53.9773 10.6149 53.8237 11.4043 53.7981 11.6176C53.781 11.8309 53.7725 11.9845 53.7725 12.0784C53.7725 12.488 53.8706 12.6928 54.0669 12.6928C54.2887 12.6928 54.6002 12.3984 55.0013 11.8096C55.4023 11.2208 55.7479 10.632 56.0381 10.0432L56.4733 9.16H56.8189C56.7677 9.2624 56.6994 9.4032 56.6141 9.5824C56.5373 9.75307 56.3794 10.0645 56.1405 10.5168C55.9015 10.9605 55.6711 11.3531 55.4493 11.6944C55.2359 12.0357 54.9927 12.3472 54.7197 12.6288C54.4551 12.9019 54.2247 13.0384 54.0285 13.0384C53.397 13.0384 53.0813 12.5776 53.0813 11.656C53.0813 11.3488 53.1154 10.9904 53.1837 10.5808H53.0941C52.2237 12.2021 51.4941 13.0128 50.9053 13.0128ZM56.8371 12.3728C56.6665 12.3728 56.5043 12.4795 56.3507 12.6928C56.1886 12.8976 56.0435 13 55.9155 13C55.7875 13 55.7235 12.9701 55.7235 12.9104C55.7235 12.8848 55.7321 12.8635 55.7491 12.8464C56.9011 11.3957 58.0702 10.0432 59.2563 8.7888C59.0003 8.85707 58.7443 8.8912 58.4883 8.8912C57.7459 8.8912 57.2809 8.6736 57.0931 8.2384C57.0505 8.12747 57.0291 8.008 57.0291 7.88C57.0291 7.74347 57.0889 7.60693 57.2083 7.4704C57.3363 7.32533 57.4771 7.2528 57.6307 7.2528C57.7843 7.2528 57.8953 7.28267 57.9635 7.3424C58.0403 7.3936 58.0915 7.47467 58.1171 7.5856C57.9891 7.5856 57.9081 7.65813 57.8739 7.8032C57.8654 7.84587 57.8611 7.88427 57.8611 7.9184C57.8611 8.08907 57.9806 8.22133 58.2195 8.3152C58.3731 8.37493 58.5993 8.4048 58.8979 8.4048C59.2051 8.4048 59.5038 8.34933 59.7939 8.2384C60.2633 7.78613 60.5662 7.56 60.7027 7.56C60.771 7.56 60.8051 7.5856 60.8051 7.6368C60.8051 7.688 60.7411 7.8032 60.6131 7.9824C60.4851 8.1616 60.2419 8.34933 59.8835 8.5456C59.2521 9.24533 58.2537 10.4059 56.8883 12.0272C56.9225 12.0187 56.9907 12.0144 57.0931 12.0144C57.2041 12.0144 57.4302 12.0955 57.7715 12.2576C58.1214 12.4197 58.4329 12.5008 58.7059 12.5008C59.2009 12.5008 59.5337 12.3003 59.7043 11.8992C59.7555 11.7712 59.7811 11.6517 59.7811 11.5408C59.7811 11.4213 59.7513 11.3232 59.6915 11.2464C59.6318 11.1696 59.5593 11.1312 59.4739 11.1312C59.491 11.0203 59.555 10.9648 59.6659 10.9648C59.9817 10.9648 60.1395 11.2123 60.1395 11.7072C60.1395 12.0656 60.003 12.4197 59.7299 12.7696C59.4569 13.1195 59.0729 13.2944 58.5779 13.2944C58.339 13.2944 58.1257 13.2432 57.9379 13.1408C57.7502 13.0469 57.6094 12.9445 57.5155 12.8336C57.2425 12.5264 57.0163 12.3728 56.8371 12.3728Z" fill="#D9D9D9"/>
</svg>
