<svg height="52.494" viewBox="0 0 278.877 52.494" width="278.877" xmlns="http://www.w3.org/2000/svg"><g transform="translate(-390.42 -372.129)"><path d="m390.42 399.922v12.351h6.18v-6.173h12.351v12.351h-6.181v6.175h12.351v-24.7z" fill="#f1f1f1"/><path d="m390.42 372.129v24.7h6.18v-18.529h12.351v18.53h6.175v-24.7z" fill="#3abdec"/><path d="m436.735 399.922v6.178h-12.35v-6.175h-6.175v24.7h6.175v-12.353h12.351v12.351h6.175v-24.7z" fill="#7cc445"/><path d="m442.911 396.83v-12.35h-6.175v6.175h-12.351v-12.355h6.175v-6.175h-12.351v24.7z" fill="#f1f1f1"/></g><path d="m9.263 12.351h6.175v6.175h-6.175z" fill="#3abdec"/><g fill="#3abdec" transform="translate(-390.42 -372.129)"><path d="m491.1 390.9-.915-2.661h-7.291l-.915 2.661h-5.406l6.958-18.491h5.989l6.98 18.491zm-4.574-13.779-2.357 6.959h4.713z"/><path d="m514.49 390.9v-18.492h4.768v14.332h7.43v4.16z"/><path d="m545.783 390.9v-18.492h4.768v18.492z"/></g><g fill="#7cc445" transform="translate(-390.42 -372.129)"><path d="m489.019 424.29v-7.43h-7.679v7.43h-4.769v-18.49h4.769v6.9h7.679v-6.9h4.768v18.49z"/><path d="m526.3 424.29-.915-2.661h-7.291l-.915 2.661h-5.406l6.959-18.491h5.988l6.986 18.491zm-4.574-13.779-2.356 6.959h4.712z"/><path d="m548.25 421.683 2.522-3.575a8.358 8.358 0 0 0 5.905 2.44c1.636 0 2.634-.639 2.634-1.525 0-2.523-10.479-.5-10.479-7.624 0-3.1 2.633-5.877 7.374-5.877a11.278 11.278 0 0 1 7.512 2.578l-2.605 3.41a8.7 8.7 0 0 0 -5.406-1.913c-1.386 0-2 .554-2 1.331 0 2.356 10.452.637 10.452 7.513 0 3.714-2.744 6.182-7.707 6.182a11.306 11.306 0 0 1 -8.202-2.94z"/><path d="m581.677 421.683 2.523-3.575a8.356 8.356 0 0 0 5.9 2.44c1.635 0 2.633-.639 2.633-1.525 0-2.523-10.479-.5-10.479-7.624 0-3.1 2.634-5.877 7.374-5.877a11.281 11.281 0 0 1 7.513 2.578l-2.606 3.41a8.7 8.7 0 0 0 -5.406-1.913c-1.386 0-2 .554-2 1.331 0 2.356 10.452.637 10.452 7.513 0 3.714-2.745 6.182-7.707 6.182a11.308 11.308 0 0 1 -8.197-2.94z"/><path d="m628.717 424.29-.915-2.661h-7.291l-.915 2.661h-5.406l6.958-18.491h5.989l6.986 18.491zm-4.575-13.779-2.356 6.959h4.714z"/><path d="m664.7 424.29-7.818-10.7v10.7h-4.769v-18.49h4.908l7.484 10.174v-10.174h4.8v18.49z"/></g></svg>